<?xml version="1.0" encoding="utf-8"?>
<!-- Generator: Adobe Illustrator 27.4.1, SVG Export Plug-In . SVG Version: 6.00 Build 0)  -->
<svg version="1.1" id="Ebene_1" xmlns="http://www.w3.org/2000/svg" xmlns:xlink="http://www.w3.org/1999/xlink" x="0px" y="0px"
	 viewBox="0 0 1198.3 423.5" style="enable-background:new 0 0 1198.3 423.5;" xml:space="preserve">
<style type="text/css">
	.st0{fill:url(#SVGID_1_);}
	.st1{fill:url(#SVGID_00000132050549538615874870000018151792062597731491_);}
	.st2{fill:url(#SVGID_00000116956947925497161700000004142617253559694987_);}
	.st3{fill:#00363F;}
</style>
<g id="qtaCG0_00000050631029368469912430000011085824044358920328_">
	<g>
		<linearGradient id="SVGID_1_" gradientUnits="userSpaceOnUse" x1="364.8173" y1="315.8033" x2="3.038" y2="106.9299">
			<stop  offset="0" style="stop-color:#3C6273"/>
			<stop  offset="1" style="stop-color:#5790A9"/>
		</linearGradient>
		<path class="st0" d="M2.8,211.5c0-34,0-68,0-102c0-0.6,0-1.2,0-1.7c0-0.8,0.4-1.3,1.1-1.7c5.1-2.9,10.1-5.8,15.1-8.7
			c5.7-3.3,11.4-6.5,17.1-9.8c4.1-2.4,8.2-4.8,12.3-7.1c4.4-2.5,8.7-5.1,13.1-7.6c5.9-3.4,11.7-6.8,17.6-10.2
			C85.3,59,91.5,55.5,97.6,52c4.5-2.6,8.9-5.3,13.4-7.8c5-2.9,10-5.7,15-8.5c4.2-2.4,8.4-4.8,12.5-7.3c5.1-2.9,10.1-5.9,15.2-8.8
			c5.5-3.2,10.9-6.3,16.4-9.5c4.3-2.5,8.5-5,12.7-7.4c0.6-0.3,1.6-0.3,2.2,0c6.5,3.7,13,7.5,19.5,11.2c5.7,3.3,11.4,6.7,17.1,10
			c6.3,3.6,12.6,7.2,18.9,10.8c4.2,2.4,8.3,4.9,12.5,7.3c4.4,2.6,8.9,5.1,13.3,7.6c3.5,2,6.9,4.1,10.4,6.1c5,2.9,10.1,5.8,15.1,8.7
			c3.7,2.1,7.4,4.3,11.1,6.4c3.6,2.1,7.2,4.1,10.8,6.2c3.7,2.2,7.4,4.3,11.2,6.5c5.1,2.9,10.3,5.9,15.4,8.8c5,2.9,9.9,5.8,14.9,8.7
			c2.7,1.6,5.4,3.2,8.2,4.7c1.3,0.7,1.7,1.6,1.7,3c0,11.3,0,22.6,0,33.9c0,9.6,0,19.1,0,28.7c0,12.6,0,25.2,0,37.8
			c0,14,0.1,28.1,0.1,42.1c0,6.7-0.1,13.3-0.1,20c0,10.1,0,20.2,0.1,30.3c0,4.2,0,8.4,0,12.6c0,1.6-0.6,2.5-2,3.3
			c-3.7,2-7.4,4.2-11.1,6.4c-4.4,2.5-8.8,5.1-13.2,7.6c-5.1,3-10.2,5.9-15.3,8.9c-3.6,2.1-7.3,4.1-10.9,6.2
			c-3.7,2.2-7.4,4.3-11.1,6.5c-0.4,0.2-0.7,0.4-1.1,0.5c-1.5,0.6-2.1,0.2-2-1.4c0-4.4,0.2-8.8,0.2-13.2c0-4.5-0.1-8.9-0.2-13.4
			c0-2.2,0-4.3-0.1-6.5c0-1.2,0.6-1.9,1.4-2.4c2.8-1.6,5.6-3.1,8.3-4.7c4.3-2.5,8.6-5.1,13-7.6c3.2-1.8,6.4-3.7,9.6-5.5
			c1-0.6,1.7-1.1,1.8-2.5c0.9-21.7,0.3-43.4,0.4-65.1c0.1-34.2,0-68.4,0-102.6c0-3.3,0-3.4-2.8-5c-3.5-2.1-7-4.1-10.5-6.1
			c-4.1-2.4-8.2-4.8-12.3-7.2c-5.1-2.9-10.2-5.8-15.3-8.8c-8.7-5-17.3-10-26-15c-7.2-4.1-14.3-8.3-21.5-12.4
			c-5.8-3.3-11.6-6.7-17.4-10c-6-3.5-12.1-7-18.1-10.5c-6.7-3.9-13.4-7.7-20-11.5c-1.3-0.8-2.6-1.6-3.9-2.3c-0.6-0.3-1.6-0.3-2.1,0
			c-5.9,3.4-11.7,6.8-17.5,10.2c-3.7,2.2-7.5,4.2-11.2,6.4c-5,2.9-9.9,5.8-14.9,8.7c-2.9,1.7-5.8,3.3-8.8,5
			c-5,2.9-10.1,5.8-15.1,8.7c-2.9,1.7-5.8,3.3-8.7,5c-5.1,3-10.3,6-15.4,9c-3.7,2.1-7.4,4.2-11.1,6.3c-3.7,2.1-7.3,4.3-10.9,6.4
			c-3.6,2.1-7.2,4.1-10.8,6.2c-6.5,3.7-12.9,7.5-19.4,11.2c-0.9,0.5-1.8,1.1-2.7,1.5c-1,0.5-1.4,1.2-1.4,2.3c0,1,0,2.1,0,3.1
			c0,55.2,0,110.4,0,165.6c0,1.5,0.5,2.3,1.7,3.1c7.8,4.5,15.7,9,23.5,13.5c3.6,2.1,7.2,4.2,10.8,6.3c0.7,0.4,1,1,1,1.8
			c0,8.7,0,17.3,0,26c0,2.5,0,4.9,0,7.4c0,1.5-0.6,1.9-1.9,1.2c-0.9-0.4-1.6-0.9-2.4-1.4c-6.5-3.8-13.1-7.5-19.6-11.3
			c-5.4-3.1-10.8-6.3-16.2-9.4c-7.7-4.4-15.4-8.8-23.2-13.3c-1.5-0.8-2.9-1.8-4.4-2.5c-1.2-0.6-1.5-1.6-1.4-2.8
			c0-18.8,0-37.6,0-56.4C2.8,242.4,2.8,226.9,2.8,211.5z"/>
		
			<linearGradient id="SVGID_00000031198680377924740290000003718907959055696053_" gradientUnits="userSpaceOnUse" x1="292.2963" y1="346.6434" x2="76.0706" y2="130.4176">
			<stop  offset="0" style="stop-color:#3C6273"/>
			<stop  offset="1" style="stop-color:#5790A9"/>
		</linearGradient>
		<path style="fill:url(#SVGID_00000031198680377924740290000003718907959055696053_);" d="M295.7,135.7c0-1.8-0.2-2-2-2
			c-3.9,0-7.7,0-11.6,0c-4.6,0-9.3-0.1-13.9-0.1c-1.6,0-1.9,0.3-1.9,1.8c0,10.4,0,20.8,0,31.2c0,1.8-0.1,3.6,0.2,5.4
			c0.3,2.1-0.5,3.2-2.7,3.2c-9.9,0-19.9,0-29.8,0c-1.5,0-2.1-0.6-2.1-2.1c0-1.6,0-3.2,0-4.8c0-7.1,0-14.2,0-21.3
			c0-1.5-0.6-2.1-1.9-2.1c-1.2,0-2.4,0-3.6,0c-7.7,0-15.3,0-23,0c-1.8,0-2.1,0.2-2.1,2.1c0,8.7,0,17.4,0,26.1c0,1.5-0.5,2.1-2.1,2.1
			c-10.1,0-20.2,0-30.3,0c-1.7,0-2.2-0.6-2.2-2.2c0-6.1,0-12.2,0-18.4c0-2.6,0-5.3,0-7.9c0-1.5-0.3-1.8-1.8-1.8c-1.5,0-3,0-4.5,0
			c-6.6,0-13.2,0-19.7,0c-1.5,0-2,0.3-2,1.8c0,8.7,0,17.3,0,26c0,1.7-0.7,2.5-2.4,2.5c-10,0-20,0-30,0c-1.8,0-2.1-0.3-2.1-2.1
			c0-8.8,0-17.7,0.1-26.5c0-1.8,0.2-3.7,0.2-5.5c0-1.8-0.2-3.6-0.3-5.4c-0.1-1.8-0.4-2.2-2.2-2.1c-1.6,0-3.3,0.2-4.9,0.2
			c-7.7,0-15.4,0-23.1-0.1c-1.6,0-1.9,0.3-1.9,1.8c0,2.8-0.1,5.5-0.2,8.3c-0.1,4.9-0.1,9.8-0.1,14.6c0,1.8,0.1,3.6,0,5.4
			c0,1.3-0.2,2.6-0.2,3.9c0.1,2.4,0.4,4.8,0.4,7.2c0.1,16.2,0.1,32.4,0,48.6c0,1.8,0.7,3,2,4.1c3.8,3.2,7.6,6.6,11.4,9.8
			c5.9,5.1,11.8,10.2,17.7,15.3c0.8,0.7,1.3,1.4,1.3,2.5c0,19.7,0,39.5,0,59.2c0,0,0,0,0,0c0,10.6,0,21.3,0,31.9
			c0,9.1,0,18.2,0,27.3c0,1,0.4,1.5,1.2,1.9c1.5,0.8,2.9,1.7,4.4,2.5c5.5,3.2,11.1,6.4,16.6,9.6c6.7,3.9,13.4,7.7,20,11.6
			c4.2,2.4,8.3,4.8,12.5,7.2c4.3,2.5,8.6,4.9,12.8,7.3c3.6,2.1,7.1,4.3,10.7,6.3c0.7,0.4,1.7,0.2,2.6,0c0.8-0.2,1.5-0.8,2.3-1.2
			c5.9-3.4,11.7-6.9,17.6-10.3c3.5-2.1,7.1-4,10.7-6.1c4.3-2.5,8.5-5,12.7-7.5c5.1-2.9,10.2-5.8,15.2-8.7
			c6.5-3.7,12.9-7.4,19.4-11.2c1.3-0.8,2.8-1.3,2.8-3.5c-0.1-11.7-0.1-23.4-0.1-35.1c0-26.9,0-53.9,0-80.8c0-1.2,0.3-2.1,1.2-2.8
			c1.5-1.3,2.9-2.6,4.3-3.9c7.7-7.2,15.4-14.5,23-21.7c0.9-0.8,1.4-1.7,1.4-3C295.7,194.7,295.7,165.2,295.7,135.7z M197,325.9
			c-1,0.6-2,1.1-3,1.6c-0.8,0.4-1.1,1-0.9,1.9c0.5,2.1,1.1,4.3,1.7,6.4c0.6,2.2,1.3,4.5,2,6.7c0.6,2.1,1.2,4.2,1.8,6.3
			c0.4,1.5,0.8,2.9,1.2,4.4c0.5,2,1.1,4,1.6,5.9c1,3.4,1.9,6.8,2.9,10.1c0.6,1.8,0.6,2.3-1,3.3c-3,1.8-6,3.4-8.9,5.2
			c-3,1.7-6,3.6-9.1,5.2c-0.6,0.3-1.8,0.5-2.4,0.1c-5-2.8-9.9-5.7-14.8-8.6c-1.3-0.8-2.7-1.5-4.1-2.3c-1-0.5-0.9-1.3-0.6-2.2
			c1.5-4.2,2.9-8.5,4.4-12.8c1.3-3.9,2.7-7.7,4-11.6c1-2.9,2-5.9,3-8.8c0.7-2.1,1.4-4.2,2.1-6.3c0.7-2,0.4-2.5-1.5-3.3
			c-4.3-1.9-7.6-5-10-9c-2.5-4.2-3.8-8.8-3.2-13.8c0.6-5.1,2.5-9.6,6-13.5c2.8-3.1,6.2-5.3,10.2-6.4c3-0.8,6.2-1.4,9.4-0.8
			c3,0.5,5.9,1.2,8.6,2.8c4.2,2.5,7.6,5.9,9.5,10.5c1.3,3,2.3,6.1,2.2,9.5C207.8,314.8,204.3,321.5,197,325.9z"/>
	</g>
</g>
<linearGradient id="SVGID_00000089574493824834230860000003464712445387295653_" gradientUnits="userSpaceOnUse" x1="73.395" y1="240.3022" x2="294.9903" y2="240.3022">
	<stop  offset="0" style="stop-color:#3C6273"/>
	<stop  offset="1" style="stop-color:#5790A9"/>
</linearGradient>
<polygon style="fill:url(#SVGID_00000089574493824834230860000003464712445387295653_);" points="266.3,253.8 104.4,253.9 
	73.4,226.9 295,226.7 "/>
<g>
	<path class="st3" d="M578.8,242.3v20.7H527c-14.3,0-26.5-5-36.7-15.1c-10.1-10.2-15.1-22.4-15.1-36.7c0-14.3,5-26.5,15.1-36.5
		c10.2-10.2,22.4-15.2,36.7-15.2c12.4,0,23.4,4,32.9,11.9c9.4,7.7,15.4,17.6,17.8,29.5h-21.4c-2.1-6.1-5.8-11.1-11.1-14.9
		c-5.4-3.8-11.4-5.7-18.1-5.7c-8.6,0-15.9,3-21.9,9.1c-6.1,6-9.2,13.3-9.2,21.9c0,8.6,3.1,15.9,9.2,21.9c6,6.1,13.3,9.2,21.9,9.2
		H578.8z"/>
	<path class="st3" d="M697.3,262.8c0,14.3-5.1,26.5-15.2,36.7c-10.1,10.1-22.2,15.1-36.5,15.1c-12.4,0-23.4-4-33-11.9
		c-9.4-7.7-15.3-17.6-17.6-29.5h21.4c2.1,6.1,5.8,11.1,11.1,14.9c5.4,3.9,11.4,5.9,18.1,5.9c8.6,0,15.9-3.1,21.9-9.2
		c6-6,9.1-13.3,9.1-21.9v-10.3c-9.1,6.9-19.4,10.3-31,10.3c-14.3,0-26.5-5-36.7-15.1c-10.1-10.2-15.1-22.4-15.1-36.7v-51.8h20.7V211
		c0,8.6,3.1,15.9,9.2,21.9c6,6.1,13.3,9.2,21.9,9.2c8.6,0,15.9-3.1,21.9-9.2c6-6,9.1-13.3,9.1-21.9v-51.8h20.8V262.8z"/>
	<path class="st3" d="M768.2,159.3c14.3,0,26.5,5.1,36.5,15.2c10.2,10.1,15.2,22.2,15.2,36.5c0,14.3-5.1,26.5-15.2,36.7
		c-10.1,10.1-22.2,15.1-36.5,15.1h-51.8V107.6H737v62.1C746.2,162.8,756.6,159.3,768.2,159.3z M768.2,242.3c8.6,0,15.9-3.1,21.9-9.2
		c6-6,9.1-13.3,9.1-21.9c0-8.6-3-15.9-9.1-21.9c-6-6-13.3-9.1-21.9-9.1c-8.6,0-15.9,3-21.9,9.1c-6.1,6-9.2,13.3-9.2,21.9v31.1H768.2
		z"/>
	<path class="st3" d="M835.4,262.9v-51.8c0-14.3,5-26.5,15.1-36.5c10.2-10.2,22.4-15.2,36.7-15.2h20.7v20.8h-20.7
		c-8.6,0-15.9,3-21.9,9.1c-6.1,6-9.2,13.3-9.2,21.9v51.8H835.4z"/>
	<path class="st3" d="M948.8,138.5c-2.8,2.9-6.1,4.3-10.2,4.3c-4,0-7.4-1.4-10.2-4.3c-2.9-2.9-4.3-6.2-4.3-10.2
		c0-4,1.4-7.5,4.3-10.3c2.8-2.8,6.1-4.1,10.2-4.1c4,0,7.4,1.4,10.2,4.1c2.9,2.9,4.3,6.3,4.3,10.3
		C953.1,132.3,951.6,135.7,948.8,138.5z M928.3,159.3v103.6h20.7V159.3H928.3z"/>
	<path class="st3" d="M1075.4,262.9h-51.8c-14.3,0-26.5-5-36.7-15.1c-10.1-10.2-15.1-22.4-15.1-36.7v-51.8h20.7v51.8
		c0,8.6,3.1,15.9,9.2,21.9c6,6.1,13.3,9.2,21.9,9.2h31v-82.9h20.8V262.9z"/>
	<path class="st3" d="M1123.2,180.2c-2.9,0-5.3,1-7.5,3c-2,2-3,4.4-3,7.3s1,5.3,3,7.3c2.1,2,4.6,3,7.5,3h41.3c8.6,0,15.9,3,22.1,9.1
		c6,6,9.1,13.3,9.1,21.9c0,8.6-3,15.9-9.1,22.1c-6.1,6-13.5,9.1-22.1,9.1h-72.4v-20.7h72.4c2.9,0,5.3-1,7.3-3c2-2.1,3-4.6,3-7.5
		s-1-5.3-3-7.3c-2-2-4.4-3-7.3-3h-41.3c-8.6,0-15.9-3-22.1-9.1c-6-6-9.1-13.3-9.1-21.9c0-8.6,3-15.9,9.1-22.1
		c6.1-6,13.5-9.1,22.1-9.1h72.4v20.8H1123.2z"/>
</g>
</svg>
