<svg xmlns="http://www.w3.org/2000/svg" viewBox="0 0 276 51" focusable="false" aria-hidden="true">
  <path fill="#0078bf" d="M42.144 20.536c0-5.96-3.882-8.94-11.644-8.94-7.762 0-11.641 2.98-11.641 8.94 0 5.914 3.88 8.87 11.641 8.87 7.762 0 11.644-2.956 11.644-8.87m11.57-15.331C58.571 8.675 61 13.784 61 20.536c0 6.706-2.429 11.792-7.286 15.262C48.86 39.268 41.12 41 30.5 41c-10.619 0-18.357-1.732-23.214-5.202C2.429 32.328 0 27.242 0 20.536 0 13.784 2.429 8.674 7.286 5.205 12.143 1.735 19.88 0 30.5 0c10.619 0 18.36 1.735 23.214 5.205M85.809 7.21h.429C91.054 3.226 97.418 0 105.333 0c6.15 0 10.967 1.262 14.446 3.784C123.26 6.306 125 10.114 125 15.207V40h-18.164V22.141c0-2.596-.8-4.696-2.397-5.898-1.598-1.2-3.922-1.803-6.972-1.803-3.195 0-5.876.939-8.048 2.403-2.168 1.466-3.252 4.134-3.252 7.592V40H68V.926h17.809V7.21Z"></path>
  <path fill="#0078bf" d="M133 40h18V2h-18zM133 51h18v-7h-18zM218 40h-22.373l-11.972-13.417-5.556 4.285V40H160V2.116h18.099v12.807L194.13 2h22.016l-19.593 14.96z"></path>
  <path fill="#0078bf" d="M257.144 20.536c0-5.96-3.882-8.94-11.644-8.94-7.762 0-11.641 2.98-11.641 8.94 0 5.914 3.88 8.87 11.641 8.87 7.762 0 11.644-2.956 11.644-8.87m11.57-15.331c4.857 3.47 7.286 8.579 7.286 15.331 0 6.706-2.429 11.792-7.286 15.262C263.86 39.268 256.12 41 245.5 41c-10.619 0-18.357-1.732-23.214-5.202-4.857-3.47-7.286-8.556-7.286-15.262 0-6.752 2.429-11.862 7.286-15.331C227.143 1.735 234.88 0 245.5 0c10.619 0 18.36 1.735 23.214 5.205"></path>
</svg>