<?xml version="1.0" encoding="utf-8"?>
<!-- Generator: Adobe Illustrator 19.0.0, SVG Export Plug-In . SVG Version: 6.00 Build 0)  -->
<svg version="1.1" id="layer" xmlns="http://www.w3.org/2000/svg" xmlns:xlink="http://www.w3.org/1999/xlink" x="0px" y="0px"
	 viewBox="-153 160 652 252" style="enable-background:new -153 -46 652 652;" xml:space="preserve">
<style type="text/css">
	.st0{fill:#AC202F;}
</style>
<rect x="392.7" y="283.2" class="st0" width="9" height="9"/>
<rect x="438.4" y="282.7" class="st0" width="10" height="10"/>
<rect x="395" y="192.9" class="st0" width="4.4" height="4.4"/>
<rect x="392.3" y="236.5" class="st0" width="9.7" height="9.7"/>
<rect x="414.7" y="258.9" class="st0" width="11.3" height="11.3"/>
<rect x="371.3" y="261.8" class="st0" width="5.4" height="5.4"/>
<rect x="464.4" y="285.5" class="st0" width="4.4" height="4.4"/>
<rect x="298.2" y="188.7" class="st0" width="12.8" height="12.8"/>
<rect x="370.4" y="191.5" class="st0" width="7.2" height="7.2"/>
<rect x="324.2" y="214.7" class="st0" width="7.2" height="7.2"/>
<rect x="345.9" y="236.4" class="st0" width="10" height="10"/>
<rect x="368.7" y="212.9" class="st0" width="10.8" height="10.8"/>
<rect x="367.2" y="234.6" class="st0" width="13.6" height="13.6"/>
<rect x="342.6" y="279.4" class="st0" width="16.6" height="16.6"/>
<rect x="348.7" y="192.9" class="st0" width="4.4" height="4.4"/>
<rect x="325.6" y="169.8" class="st0" width="4.4" height="4.4"/>
<rect x="344.5" y="258.1" class="st0" width="12.8" height="12.8"/>
<rect x="367.2" y="280.9" class="st0" width="13.6" height="13.6"/>
<rect x="299.1" y="212.8" class="st0" width="11" height="11"/>
<rect x="276.5" y="213.3" class="st0" width="10" height="10"/>
<rect x="322.8" y="190.1" class="st0" width="10" height="10"/>
<rect x="345.5" y="212.9" class="st0" width="10.8" height="10.8"/>
<rect x="296.4" y="233.2" class="st0" width="16.4" height="16.4"/>
<rect x="301" y="168.4" class="st0" width="7.2" height="7.2"/>
<rect x="321.4" y="235" class="st0" width="12.8" height="12.8"/>
<rect x="277.9" y="191.5" class="st0" width="7.2" height="7.2"/>
<rect x="275.6" y="235.5" class="st0" width="11.8" height="11.8"/>
<rect x="229.4" y="258.7" class="st0" width="11.5" height="11.5"/>
<rect x="319.5" y="256.2" class="st0" width="16.6" height="16.6"/>
<rect x="416.7" y="237.8" class="st0" width="7.2" height="7.2"/>
<rect x="392.8" y="260.2" class="st0" width="8.6" height="8.6"/>
<rect x="254.8" y="353.5" class="st0" width="7.2" height="7.2"/>
<rect x="347.3" y="168.4" class="st0" width="7.2" height="7.2"/>
<rect x="416.7" y="284.1" class="st0" width="7.2" height="7.2"/>
<rect x="272.9" y="255.9" class="st0" width="17.3" height="17.3"/>
<rect x="418.1" y="331.8" class="st0" width="4.4" height="4.4"/>
<rect x="371.8" y="354.9" class="st0" width="4.4" height="4.4"/>
<rect x="302.4" y="146.7" class="st0" width="4.4" height="4.4"/>
<rect x="256.2" y="169.8" class="st0" width="4.4" height="4.4"/>
<rect x="416.7" y="307.2" class="st0" width="7.2" height="7.2"/>
<rect x="393.9" y="307.6" class="st0" width="6.5" height="6.5"/>
<rect x="302.4" y="401.2" class="st0" width="4.4" height="4.4"/>
<rect x="256.2" y="378" class="st0" width="4.4" height="4.4"/>
<rect x="322.8" y="375.2" class="st0" width="10" height="10"/>
<rect x="277.9" y="145.3" class="st0" width="7.2" height="7.2"/>
<rect x="347.3" y="330.3" class="st0" width="7.2" height="7.2"/>
<rect x="324.2" y="353.5" class="st0" width="7.2" height="7.2"/>
<rect x="348.7" y="378" class="st0" width="4.4" height="4.4"/>
<rect x="393.6" y="214.7" class="st0" width="7.2" height="7.2"/>
<rect x="369.5" y="329.4" class="st0" width="9" height="9"/>
<rect x="344.3" y="304.2" class="st0" width="13.1" height="13.1"/>
<rect x="299.6" y="375.2" class="st0" width="10" height="10"/>
<rect x="277.9" y="376.6" class="st0" width="7.2" height="7.2"/>
<rect x="345" y="351.2" class="st0" width="11.8" height="11.8"/>
<rect x="296.8" y="326.1" class="st0" width="15.6" height="15.6"/>
<rect x="275.6" y="166.1" class="st0" width="11.7" height="11.7"/>
<rect x="321.4" y="327.5" class="st0" width="12.8" height="12.8"/>
<rect x="275.1" y="350.7" class="st0" width="12.8" height="12.8"/>
<rect x="275.1" y="327.5" class="st0" width="12.8" height="12.8"/>
<rect x="319.6" y="302.6" class="st0" width="16.4" height="16.4"/>
<rect x="393" y="329.8" class="st0" width="8.3" height="8.3"/>
<rect x="233" y="331.8" class="st0" width="4.4" height="4.4"/>
<rect x="230.2" y="305.8" class="st0" width="10" height="10"/>
<rect x="230.6" y="283.1" class="st0" width="9.2" height="9.2"/>
<rect x="233" y="239.2" class="st0" width="4.4" height="4.4"/>
<rect x="232.2" y="215.2" class="st0" width="6.1" height="6.1"/>
<rect x="369" y="305.8" class="st0" width="10" height="10"/>
<rect x="299.6" y="352.1" class="st0" width="10" height="10"/>
<rect x="250.1" y="279.4" class="st0" width="16.5" height="16.5"/>
<rect x="253" y="328.6" class="st0" width="10.8" height="10.8"/>
<rect x="251.9" y="304.3" class="st0" width="12.9" height="12.9"/>
<rect x="252" y="258.1" class="st0" width="12.8" height="12.8"/>
<rect x="254.8" y="191.5" class="st0" width="7.2" height="7.2"/>
<rect x="254.4" y="214.3" class="st0" width="8" height="8"/>
<rect x="251.6" y="234.6" class="st0" width="13.6" height="13.6"/>
<rect x="272.9" y="302.2" class="st0" width="17.3" height="17.3"/>
<g>
	<path class="st0" d="M205.4,265.6v-14.9h-56.8v14.9h20v59.6h16.8v-59.6H205.4z M109,275.1c0-6.5,2.1-10.3,10.4-10.3
		c5.4,0,12.7,0.7,19.2,1.8L141,252c-7.4-1.6-14.1-2.3-21.6-2.3c-18.8,0-27.2,9.3-27.2,22.8v31.1c0,13.5,8.4,22.8,27.2,22.8
		c7.5,0,14.2-0.8,21.6-2.3l-2.3-14.7c-6.5,1.1-13.9,1.8-19.2,1.8c-8.3,0-10.4-3.8-10.4-10.3V275.1z M78.7,250.8H61.9v74.5h16.8
		V250.8z"/>
	<path class="st0" d="M47.4,297.9c0-7.9-0.8-10.3-12.1-12.8c-4.7-1.1-5-1.4-5-3.8c0-1.8,0.8-2.7,4.2-2.7c3.1,0,7.4,0.5,10.9,1.1
		l1.1-9.1c-3.5-0.9-9-1.3-12-1.3c-11.8,0-15.1,3.5-15.1,11.8c0,7.4,0.9,10,10.4,12.3c6.3,1.5,6.4,1.9,6.4,4.4c0,2.3-0.6,3.3-4,3.3
		c-4.4,0-8.7-0.8-11.9-1.8l-1.9,8.7c3.9,1.3,10,2.3,14.3,2.3C44,310.5,47.4,306,47.4,297.9 M12.5,297.9c0-7.9-0.8-10.3-12.1-12.8
		c-4.7-1.1-5-1.4-5-3.8c0-1.8,0.8-2.7,4.2-2.7c3.1,0,7.4,0.5,10.9,1.1l1-9.1c-3.5-0.9-9-1.3-12-1.3c-11.8,0-15.1,3.5-15.1,11.8
		c0,7.4,0.9,10,10.5,12.3c6.3,1.5,6.4,1.9,6.4,4.4c0,2.3-0.6,3.3-4,3.3c-4.4,0-8.7-0.8-11.9-1.8l-1.9,8.7c3.9,1.3,10,2.3,14.3,2.3
		C9.1,310.5,12.5,306,12.5,297.9 M-24.3,270.2h-11.7v39.5h11.7V270.2z M-62.3,309.7h12.6l6.8-39.5h-10.7l-3.7,23.1l-6.8-23.1h-11.7
		l-6.9,23.1l-3.7-23.1h-10.7l6.8,39.5h12.6l7.6-25.8L-62.3,309.7z M-102.3,297.9c0-7.9-0.8-10.3-12.1-12.8c-4.7-1.1-5-1.4-5-3.8
		c0-1.8,0.8-2.7,4.2-2.7c3.1,0,7.4,0.5,10.9,1.1l1.1-9.1c-3.5-0.9-9-1.3-12-1.3c-11.8,0-15.1,3.5-15.1,11.8c0,7.4,0.9,10,10.4,12.3
		c6.3,1.5,6.4,1.9,6.4,4.4c0,2.3-0.6,3.3-4.1,3.3c-4.4,0-8.7-0.8-11.9-1.8l-1.9,8.7c3.9,1.3,10,2.3,14.3,2.3
		C-105.7,310.5-102.3,306-102.3,297.9"/>
	<rect x="-35.9" y="256.5" class="st0" width="11.7" height="8.8"/>
</g>
</svg>
