<svg xmlns="http://www.w3.org/2000/svg" width="682.811" height="534.726" viewBox="0 0 682.811 534.726">
    <defs>
        <style>
            .cls-1{fill:none}.cls-2{clip-path:url(#clip-path)}.cls-3{fill:#f0f8fe}.cls-4,.cls-6{fill:#fff}.cls-4{opacity:.66}.cls-5{fill:#bcbfc3}.cls-7{fill:#bbbdbf}.cls-8{fill:#f9f9f9}.cls-9{fill:#f0f2f5}.cls-10{fill:#f2f2f2}.cls-11{fill:#62b4f8}.cls-12{fill:#f9fbfc}.cls-13{fill:#e5e5e5}.cls-14{fill:#3a3f47}.cls-15{fill:#eea886}.cls-16{fill:#eebea7}.cls-17{fill:#0b4870}.cls-18{fill:#ffbe55}.cls-19{fill:#d3d3d3}.cls-20{fill:#5f8cc9}.cls-21{fill:#fcd2b1}.cls-22{fill:#2d2d2d}.cls-23{fill:#2a94f4}.cls-24{fill:#ffe6ae}.cls-25{fill:#f7d98f}.cls-26{fill:#606bf1}.cls-27{fill:#fbd15b}.cls-28{fill:#ff8578}
        </style>
        <clipPath id="clip-path">
            <path id="Path_55141" d="M1783.26 185.6c-80.588-33.882-166.276-80.037-218.54-30.785s-33.547 161.924-101.463 140.669-201.076 1.434-217.922 131.989 6.543 221.956 141.741 189.562 143.821-167.814 265.716-58.262 209.532 127.016 193.287 29.009-57.706-164.991 13.772-194.564 122.863-123.794-76.591-207.618z" class="cls-1" data-name="Path 55141" transform="translate(0 28)"/>
        </clipPath>
    </defs>
    <g id="Group_56166" data-name="Group 56166" transform="translate(-1240.566 -161.307)">
        <g id="Group_56167" data-name="Group 56167">
            <g id="Group_56166-2" class="cls-2" data-name="Group 56166">
                <path id="Union_16" d="M1948.93 753.878l.637-4.661 4.581.647-.637 4.661zm-18.326-2.587l.637-4.661 4.581.646-.637 4.661zm-18.326-2.588l.637-4.661 4.582.647-.637 4.661zm-18.328-2.588l.637-4.661 4.583.647-.637 4.661zm-18.325-2.588l.637-4.661 4.589.648-.637 4.661zm-18.326-2.588l.637-4.661 4.581.647-.637 4.661zm-18.326-2.588l.636-4.661 4.581.647-.637 4.661zm-18.327-2.588l.637-4.661 4.582.647-.637 4.661zm-18.326-2.587l.637-4.661 4.582.647-.637 4.661zm-18.326-2.588l.637-4.661 4.58.647-.637 4.661zM1765.667 728l.637-4.661 4.581.647-.637 4.661zm-18.326-2.588l.637-4.661 4.582.647-.637 4.661zm-18.326-2.588l.637-4.661 4.581.647-.636 4.661zm-18.326-2.588l.637-4.66 4.581.646-.637 4.661zm-18.326-2.587l.637-4.661 4.581.647-.637 4.66zm-18.326-2.588l.637-4.661 4.58.647-.636 4.661zm-18.009-2.543l.636-4.661 4.6.649-.637 4.661zm-18.328-2.588l.637-4.661 4.581.647-.637 4.661zm-18.326-2.588l.637-4.661 4.581.647-.637 4.661zm-18.326-2.588l.636-4.661 4.582.647-.637 4.661zm-18.327-2.588l.637-4.66 4.582.647-.637 4.66zm-18.325-2.587l.637-4.661 4.581.647-.637 4.661zm-18.326-2.588l.637-4.661 4.58.647-.637 4.661zm-18.327-2.588l.637-4.661 4.6.649-.637 4.661zm-18.326-2.588l.637-4.661 4.582.647-.637 4.661zm-18.326-2.588l.637-4.661 4.581.647-.637 4.661zm-18.326-2.587l.637-4.661 4.581.647-.637 4.661zm-18.326-2.588l.637-4.661 4.581.647-.637 4.661zm-18.326-2.588l.637-4.661 4.582.647-.636 4.661zm-18.327-2.588l.637-4.661 4.582.647-.637 4.661zm-18.325-2.588l.637-4.661 4.595.649-.636 4.661zm-18.326-2.587l.637-4.661 4.58.646-.636 4.661zm-18.327-2.588l.637-4.661 4.581.647-.637 4.661zm-18.326-2.588l.637-4.661 4.582.647-.637 4.661zm-18.326-2.588l.637-4.661 4.582.647-.637 4.661zm-18.325-2.588l.636-4.661 4.581.647-.637 4.661zm-18.327-2.588l.637-4.66 4.581.646-.637 4.661zm-18.326-2.587l.637-4.661 4.582.647-.637 4.661zm-18.326-2.588l.636-4.661 4.582.647-.637 4.661zM1234.527 653l.637-4.661 4.6.65-.637 4.661zm-18.327-2.59l.637-4.661 4.581.647-.637 4.661zm-18.305-2.585l.637-4.661 4.581.647-.637 4.661zm753.582 87.413l.636-4.661 4.581.647-.637 4.661zm-18.327-2.588l.637-4.661 4.581.647-.637 4.661zm-18.326-2.588l.637-4.661 4.582.647-.637 4.661zm-18.327-2.588l.636-4.661 4.583.647-.637 4.661zm-18.326-2.587l.637-4.661 4.589.648-.636 4.661zm-18.326-2.588l.637-4.661 4.581.647-.637 4.661zm-18.326-2.588l.637-4.661 4.58.647-.637 4.661zm-18.327-2.588l.637-4.661 4.582.647-.637 4.661zm-18.326-2.588l.637-4.661 4.582.647-.637 4.661zm-18.326-2.588l.637-4.661 4.58.647-.636 4.661zm-18.327-2.588l.637-4.66 4.581.646-.637 4.661zm-18.326-2.587l.637-4.661 4.582.647-.637 4.661zm-18.326-2.588l.637-4.661 4.582.647-.637 4.661zm-18.325-2.588l.636-4.661 4.581.647-.637 4.661zm-18.327-2.588l.637-4.661 4.581.647-.637 4.661zm-18.326-2.588l.637-4.661 4.581.647-.637 4.661zm-18.009-2.543l.637-4.661 4.6.65-.637 4.66zm-18.326-2.587l.637-4.661 4.581.647-.637 4.66zm-18.326-2.588l.637-4.661 4.581.647-.637 4.661zm-18.326-2.588l.637-4.661 4.581.647-.636 4.661zm-18.327-2.588l.637-4.661 4.582.647-.637 4.661zm-18.325-2.588l.637-4.661 4.581.647-.637 4.661zm-18.326-2.588l.637-4.66 4.58.646-.635 4.664zm-18.327-2.587l.637-4.661 4.6.649-.637 4.661zm-18.326-2.588l.637-4.661 4.582.647-.637 4.661zm-18.326-2.588l.637-4.661 4.581.647-.636 4.661zM1475.314 668l.637-4.661 4.581.647-.637 4.661zm-18.326-2.588l.637-4.661 4.581.647-.637 4.661zm-18.326-2.587l.637-4.661 4.583.647-.637 4.661zm-18.327-2.588l.637-4.661 4.582.647-.637 4.661zm-18.325-2.588l.637-4.661 4.6.649-.637 4.661zm-18.326-2.588l.637-4.661 4.581.647-.637 4.661zm-18.326-2.588l.636-4.661 4.581.647-.637 4.661zm-18.327-2.588l.637-4.661 4.582.647-.637 4.661zM1328.7 647.3l.637-4.661 4.582.647-.637 4.661zm-18.325-2.588l.637-4.661 4.58.647-.637 4.661zm-18.327-2.588l.637-4.661 4.581.647-.637 4.661zm-18.326-2.588l.637-4.661 4.582.647-.637 4.661zm-18.326-2.588l.637-4.661 4.581.647-.636 4.661zm-18.327-2.588l.637-4.66 4.6.649-.637 4.661zm-18.326-2.587l.637-4.661 4.581.647-.637 4.66zm-18.3-2.585l.636-4.661 4.581.647-.637 4.661zm753.582 87.412l.636-4.658 4.581.647-.637 4.658zm-18.325-2.59l.637-4.659 4.581.647-.637 4.658zm-18.326-2.588l.637-4.659 4.581.647-.636 4.659zm-18.327-2.588l.636-4.659 4.583.647-.636 4.659zm-18.326-2.588l.637-4.659 4.589.648-.636 4.659zm-18.326-2.588l.637-4.659 4.581.647-.637 4.659zm-18.326-2.588l.636-4.658 4.581.646-.636 4.659zm-18.327-2.587l.637-4.659 4.582.647-.637 4.659zm-18.326-2.588l.637-4.659 4.582.647-.637 4.659zm-18.326-2.588l.636-4.659 4.581.647-.636 4.659zm-18.326-2.588l.636-4.659 4.581.647-.637 4.659zm-18.327-2.588l.637-4.659 4.582.647-.637 4.659zm-18.326-2.588l.637-4.658 4.581.647-.636 4.658zm-18.325-2.587l.636-4.659 4.581.647-.637 4.658zm-18.327-2.588l.637-4.659 4.581.647-.637 4.659zm-18.326-2.588l.637-4.659 4.58.647-.636 4.659zm-18.009-2.543l.636-4.659 4.6.649-.637 4.659zm-18.326-2.588l.637-4.659 4.581.647-.637 4.659zm-18.326-2.588l.637-4.659 4.581.647-.637 4.659zm-18.326-2.588l.636-4.658 4.582.647-.636 4.658zm-18.327-2.587l.637-4.659 4.582.647-.637 4.659zm-18.325-2.588l.637-4.659 4.581.647-.637 4.659zm-18.326-2.588l.636-4.659 4.581.647-.636 4.659zm-18.326-2.588l.636-4.659 4.6.649-.637 4.659zm-18.327-2.588l.637-4.658 4.582.647-.637 4.658zm-18.326-2.588l.636-4.658 4.582.647-.636 4.658zm-18.325-2.587l.636-4.659 4.581.647-.637 4.659zm-18.327-2.588l.637-4.659 4.581.647-.637 4.659zm-18.326-2.588l.637-4.659 4.582.647-.636 4.659zm-18.326-2.588l.636-4.659 4.582.647-.637 4.659zm-18.326-2.587l.637-4.659 4.595.649-.636 4.658zm-18.326-2.588l.637-4.659 4.58.647-.636 4.659zm-18.326-2.588l.636-4.659 4.581.647-.637 4.659zm-18.327-2.588l.637-4.659 4.582.647-.637 4.659zm-18.326-2.588l.637-4.659 4.581.647-.636 4.659zm-18.325-2.588l.636-4.658 4.581.646-.636 4.659zm-18.327-2.587l.637-4.659 4.581.647-.637 4.658zm-18.326-2.588l.637-4.659 4.582.647-.637 4.659zm-18.326-2.588l.636-4.659 4.582.647-.636 4.659zm-18.327-2.588l.637-4.659 4.6.65-.637 4.659zm-18.326-2.588l.637-4.659 4.581.647-.637 4.659zm-18.3-2.585l.636-4.658 4.581.646-.637 4.659zm753.588 87.412l.636-4.66 4.581.647-.637 4.66zm-18.327-2.588l.637-4.66 4.581.647-.637 4.66zm-18.326-2.588l.637-4.66 4.582.647-.637 4.66zm-18.327-2.588l.636-4.66 4.583.647-.637 4.66zm-18.326-2.588l.637-4.659 4.583.647-.637 4.66zm-18.326-2.587l.637-4.66 4.581.647-.637 4.659zm-18.326-2.588l.636-4.66 4.581.647-.637 4.66zm-18.327-2.588l.637-4.66 4.582.647-.637 4.66zm-18.326-2.588l.637-4.66 4.582.647-.637 4.66zm-18.326-2.588l.637-4.66 4.58.647-.636 4.66zm-18.327-2.588l.637-4.659 4.581.646-.637 4.66zm-18.326-2.587l.637-4.66 4.582.647-.637 4.66zm-18.326-2.588l.637-4.66 4.581.647-.636 4.66zm-18.325-2.588l.636-4.66 4.581.647-.637 4.66zm-18.327-2.588l.637-4.66 4.581.647-.637 4.66zm-18.317-2.586l.637-4.66 4.581.647-.637 4.659zm-18.009-2.544l.636-4.659 4.582.647-.636 4.659zm-18.326-2.587l.637-4.66 4.581.647-.637 4.66zm-18.326-2.588l.637-4.66 4.581.647-.637 4.66zm-18.326-2.588l.637-4.66 4.581.647-.636 4.66zm-18.327-2.588l.637-4.66 4.582.647-.637 4.66zm-18.325-2.587l.637-4.66 4.581.647-.637 4.659zm-18.326-2.588l.637-4.66 4.58.647-.636 4.66zm-18.327-2.588l.637-4.66 4.581.647-.637 4.66zm-18.326-2.588l.637-4.66 4.582.647-.637 4.66zm-18.326-2.588l.637-4.66 4.581.647-.636 4.66zm-18.325-2.588l.636-4.659 4.581.646-.637 4.66zm-18.327-2.587l.637-4.66 4.581.647-.637 4.659zm-18.326-2.588l.637-4.66 4.583.647-.637 4.66zm-18.326-2.588l.636-4.66 4.582.647-.637 4.66zm-18.326-2.588l.637-4.66 4.58.647-.637 4.66zm-18.326-2.588l.637-4.66 4.581.647-.637 4.66zm-18.326-2.588l.636-4.659 4.581.646-.637 4.66zm-18.327-2.587l.637-4.66 4.582.647-.637 4.66zm-18.326-2.588l.637-4.66 4.582.647-.637 4.66zm-18.325-2.588l.636-4.66 4.581.647-.636 4.66zm-18.327-2.588l.637-4.66 4.581.647-.637 4.66zm-18.326-2.588l.637-4.659 4.582.647-.637 4.659zm-18.326-2.587l.636-4.66 4.582.647-.636 4.66zm-18.327-2.588l.637-4.66 4.586.647-.637 4.66zm-18.326-2.588l.637-4.66 4.581.647-.637 4.66zm-18.32-2.587l.637-4.66 4.581.647-.637 4.66zm753.581 87.416l.637-4.661 4.58.647-.636 4.66zm-18.327-2.588l.637-4.661 4.581.647-.637 4.661zm-18.326-2.588l.637-4.661 4.582.647-.637 4.661zm-18.327-2.588l.637-4.661 4.583.647-.637 4.661zm-18.326-2.588l.637-4.661 4.59.648-.637 4.661zm-18.326-2.588l.637-4.66 4.581.646-.637 4.661zm-18.326-2.587l.637-4.661 4.581.647-.637 4.66zm-18.326-2.588l.636-4.661 4.582.647-.637 4.661zm-18.327-2.588l.637-4.661 4.582.647-.637 4.661zm-18.326-2.588l.637-4.661 4.581.647-.637 4.661zm-18.326-2.588l.637-4.661 4.58.647-.637 4.661zm-18.327-2.588l.637-4.661 4.582.647-.637 4.661zm-18.326-2.588l.637-4.66 4.582.647-.637 4.66zm-18.325-2.587l.637-4.661 4.58.647-.636 4.661zm-18.327-2.588l.637-4.661 4.581.647-.637 4.661zm-18.326-2.588l.637-4.661 4.581.647-.637 4.661zm-18.009-2.543l.637-4.661 4.6.649-.637 4.661zm-18.325-2.588l.636-4.661 4.581.647-.637 4.661zm-18.327-2.588l.637-4.66 4.581.646-.637 4.661zm-18.326-2.587l.637-4.661 4.582.647-.637 4.661zm-18.326-2.588l.636-4.661 4.582.647-.637 4.661zm-18.326-2.588l.637-4.661 4.581.647-.637 4.661zm-18.326-2.588l.637-4.661 4.581.647-.637 4.661zm-18.326-2.588l.636-4.661 4.6.65-.637 4.66zm-18.327-2.588l.637-4.66 4.582.647-.637 4.66zm-18.326-2.587l.637-4.661 4.582.647-.637 4.661zm-18.325-2.588l.637-4.661 4.58.647-.637 4.661zm-18.327-2.588l.637-4.661 4.581.647-.637 4.661zM1446.3 606.9l.637-4.661 4.583.647-.637 4.661zm-18.326-2.588l.637-4.661 4.581.647-.636 4.661zm-18.326-2.587l.637-4.661 4.6.649-.637 4.661zm-18.326-2.588l.637-4.661 4.581.647-.637 4.661zM1373 596.552l.637-4.661 4.58.647-.636 4.661zm-18.327-2.588l.637-4.661 4.582.647-.637 4.661zm-18.326-2.588l.637-4.661 4.582.647-.637 4.661zm-18.325-2.587l.637-4.661 4.581.647-.637 4.66zm-18.327-2.588l.637-4.661 4.581.647-.637 4.661zm-18.326-2.588l.637-4.661 4.582.647-.637 4.661zm-18.326-2.588l.637-4.661 4.582.647-.637 4.661zm-18.326-2.588l.636-4.661 4.6.65-.637 4.661zm-18.327-2.588l.637-4.661 4.581.647-.637 4.661zm-18.3-2.584l.637-4.661 4.58.647-.636 4.66zm753.587 87.416l.637-4.661 4.581.647-.637 4.661zm-18.326-2.588l.637-4.66 4.58.646-.637 4.661zm-18.327-2.587l.637-4.661 4.582.647-.637 4.661zm-18.327-2.588l.637-4.661 4.583.647-.637 4.661zm-18.325-2.588l.637-4.661 4.582.647-.637 4.661zm-18.327-2.588l.637-4.661 4.581.647-.637 4.661zm-18.326-2.588l.637-4.661 4.581.647-.637 4.661zm-18.326-2.588l.637-4.661 4.581.647-.636 4.661zm-18.327-2.588l.637-4.66 4.582.647-.637 4.66zm-18.326-2.587l.637-4.661 4.581.647-.637 4.66zm-18.326-2.588l.637-4.661 4.581.647-.637 4.661zm-18.326-2.588l.636-4.661 4.582.647-.637 4.661zm-18.327-2.588l.637-4.661 4.582.647-.637 4.661zm-18.325-2.588l.637-4.66 4.581.646-.637 4.661zm-18.326-2.587l.636-4.661 4.581.647-.637 4.66zm-18.318-2.587l.637-4.661 4.581.647-.637 4.661zm-18.009-2.543l.637-4.661 4.582.647-.637 4.661zm-18.325-2.588l.637-4.661 4.581.647-.637 4.661zm-18.327-2.588l.637-4.661 4.581.647-.637 4.661zm-18.326-2.587l.637-4.661 4.582.647-.637 4.661zm-18.326-2.588l.637-4.661 4.582.647-.637 4.661zm-18.325-2.588l.636-4.661 4.581.647-.637 4.661zm-18.327-2.588l.637-4.661 4.581.647-.637 4.661zm-18.326-2.588l.637-4.661 4.581.647-.637 4.661zm-18.326-2.588l.636-4.66 4.582.647-.637 4.66zm-18.327-2.587l.637-4.661 4.582.647-.637 4.661zm-18.325-2.588l.637-4.661 4.581.647-.637 4.661zm-18.326-2.588l.636-4.661 4.581.647-.637 4.661zm-18.327-2.588l.637-4.661 4.583.647-.637 4.661zm-18.326-2.588l.637-4.661 4.582.647-.637 4.661zm-18.325-2.587l.637-4.661 4.579.646-.636 4.661zm-18.327-2.588l.637-4.661 4.581.647-.637 4.661zm-18.326-2.588l.637-4.661 4.581.647-.637 4.661zm-18.326-2.588l.637-4.661 4.581.647-.636 4.661zm-18.327-2.588l.637-4.661 4.582.647-.637 4.661zm-18.325-2.588l.637-4.66 4.581.646-.637 4.661zm-18.326-2.587l.637-4.661 4.58.647-.636 4.66zm-18.327-2.588l.637-4.661 4.582.647-.637 4.661zm-18.335-2.588l.637-4.661 4.582.647-.637 4.661zm-18.326-2.588l.637-4.661 4.586.648-.637 4.661zm-18.327-2.588l.637-4.661 4.581.647-.637 4.661zm-18.32-2.587l.637-4.661 4.581.647-.637 4.661zm753.582 87.413l.636-4.66 4.581.647-.637 4.66zm-18.327-2.588l.637-4.66 4.581.647-.637 4.66zm-18.326-2.588l.637-4.66 4.581.647-.636 4.66zm-18.327-2.588l.636-4.66 4.583.648-.637 4.659zm-18.326-2.587l.637-4.66 4.589.648-.636 4.66zm-18.326-2.588l.637-4.66 4.581.647-.637 4.66zm-18.326-2.588l.636-4.66 4.581.647-.637 4.66zm-18.327-2.588l.637-4.66 4.582.647-.637 4.66zm-18.326-2.588l.637-4.66 4.582.647-.637 4.66zm-18.326-2.588l.636-4.66 4.581.647-.636 4.66zm-18.327-2.588l.637-4.659 4.581.646-.637 4.66zm-18.326-2.587l.637-4.66 4.582.647-.637 4.66zm-18.326-2.588l.637-4.66 4.581.647-.636 4.66zm-18.325-2.588l.636-4.66 4.581.647-.637 4.66zm-18.327-2.588l.637-4.66 4.581.647-.637 4.66zm-18.326-2.588l.637-4.659 4.58.646-.636 4.66zm-18.009-2.543l.636-4.66 4.6.65-.637 4.659zm-18.326-2.587l.637-4.66 4.581.647-.637 4.659zm-18.326-2.588l.637-4.66 4.581.647-.637 4.66zm-18.326-2.588l.636-4.66 4.582.647-.636 4.66zm-18.327-2.588l.637-4.66 4.582.647-.637 4.66zm-18.325-2.588l.637-4.66 4.581.647-.637 4.66zm-18.326-2.588l.636-4.659 4.581.646-.636 4.66zm-18.327-2.587l.637-4.66 4.6.649-.637 4.66zm-18.326-2.588l.637-4.66 4.582.647-.637 4.66zm-18.326-2.588l.636-4.66 4.582.647-.636 4.66zm-18.326-2.588l.637-4.66 4.581.647-.637 4.66zm-18.326-2.588l.637-4.659 4.581.646-.637 4.66zm-18.326-2.587l.637-4.66 4.582.647-.636 4.66zm-18.327-2.588l.637-4.66 4.582.647-.637 4.66zm-18.325-2.588l.637-4.66 4.6.649-.636 4.66zm-18.326-2.588l.637-4.66 4.58.647-.636 4.66zm-18.326-2.588l.636-4.66 4.581.647-.637 4.66zm-18.327-2.588l.637-4.659 4.582.647-.637 4.659zm-18.322-2.586l.637-4.66 4.581.647-.636 4.66zm-18.325-2.588l.636-4.66 4.581.647-.637 4.66zm-18.327-2.588l.637-4.66 4.581.647-.637 4.66zm-18.326-2.588l.637-4.66 4.582.647-.637 4.66zm-18.326-2.588l.636-4.66 4.582.647-.637 4.66zm-18.327-2.588l.637-4.659 4.6.649-.637 4.66zm-18.326-2.587l.637-4.66 4.581.647-.637 4.659zm-18.3-2.588l.637-4.66 4.58.647-.636 4.66zM1966.76 623.4l.637-4.66 4.581.647-.637 4.66zm-18.326-2.588l.637-4.659 4.58.646-.636 4.66zm-18.327-2.587l.637-4.66 4.582.647-.637 4.66zm-18.327-2.588l.637-4.66 4.583.647-.637 4.66zm-18.325-2.588l.637-4.66 4.589.648-.637 4.66zm-18.326-2.588l.636-4.66 4.581.647-.637 4.66zm-18.327-2.588l.637-4.66 4.581.647-.637 4.66zm-18.326-2.588l.637-4.659 4.581.647-.636 4.659zm-18.326-2.587l.636-4.66 4.582.647-.637 4.66zm-18.327-2.588l.637-4.66 4.581.647-.637 4.66zm-18.326-2.588l.637-4.66 4.581.647-.637 4.66zm-18.326-2.588l.636-4.66 4.582.647-.637 4.66zm-18.327-2.588l.637-4.66 4.582.647-.637 4.66zm-18.325-2.588l.637-4.659 4.581.646-.637 4.66zm-18.326-2.587l.636-4.66 4.581.647-.636 4.659zm-18.327-2.588l.637-4.66 4.581.647-.637 4.66zm-18.009-2.543l.637-4.66 4.6.649-.636 4.66zm-18.325-2.588l.637-4.66 4.58.647-.636 4.66zm-18.326-2.588l.636-4.66 4.581.647-.637 4.66zm-18.327-2.588l.637-4.66 4.582.647-.637 4.66zm-18.326-2.588l.637-4.659 4.581.647-.636 4.659zm-18.325-2.587l.636-4.66 4.581.647-.637 4.66zm-18.327-2.588l.637-4.66 4.581.647-.637 4.66zm-18.326-2.588l.637-4.66 4.6.649-.637 4.66zm-18.326-2.588l.636-4.66 4.582.647-.637 4.66zm-18.327-2.588l.637-4.66 4.582.647-.637 4.66zm-18.325-2.587l.637-4.66 4.581.647-.637 4.659zm-18.326-2.588l.636-4.66 4.581.647-.637 4.66zm-18.327-2.588l.637-4.66 4.583.647-.637 4.66zm-18.326-2.588l.637-4.66 4.582.647-.637 4.66zm-18.325-2.588l.636-4.659 4.6.648-.637 4.66zm-18.327-2.587l.637-4.66 4.581.647-.637 4.659zm-18.326-2.588l.637-4.66 4.581.647-.637 4.66zm-18.326-2.588l.636-4.66 4.582.647-.636 4.66zm-18.327-2.588l.637-4.66 4.582.647-.637 4.66zm-18.325-2.588l.637-4.66 4.581.647-.637 4.66zm-18.326-2.588l.637-4.659 4.58.646-.636 4.66zm-18.326-2.587l.636-4.66 4.582.647-.637 4.66zm-18.327-2.588l.637-4.66 4.582.647-.637 4.66zm-18.326-2.588l.637-4.66 4.6.65-.637 4.66zm-18.326-2.588l.636-4.66 4.581.647-.637 4.66zm-18.305-2.585l.637-4.66 4.581.647-.637 4.66zm753.581 87.413l.637-4.66 4.581.647-.637 4.66zm-18.326-2.588l.637-4.66 4.58.647-.636 4.66zm-18.326-2.588l.636-4.66 4.582.647-.637 4.66zm-18.328-2.588l.637-4.66 4.583.647-.637 4.66zM1896 594.4l.637-4.659 4.589.648-.637 4.659zm-18.326-2.587l.636-4.66 4.581.647-.637 4.659zm-18.327-2.588l.637-4.66 4.581.647-.637 4.66zm-18.326-2.588l.637-4.66 4.582.647-.637 4.66zm-18.326-2.588l.636-4.66 4.582.647-.636 4.66zm-18.327-2.588l.637-4.66 4.581.647-.637 4.66zm-18.326-2.588l.637-4.659 4.581.646-.637 4.66zm-18.326-2.587l.637-4.66 4.581.647-.636 4.66zm-18.327-2.588l.637-4.66 4.582.647-.637 4.66zm-18.325-2.588l.637-4.66 4.581.647-.637 4.66zm-18.326-2.588l.637-4.66 4.58.647-.636 4.66zm-18.326-2.588l.636-4.66 4.581.647-.637 4.66zM1676.4 563.4l.637-4.66 4.6.65-.636 4.659zm-18.325-2.587l.637-4.66 4.581.647-.637 4.659zm-18.326-2.588l.636-4.66 4.581.647-.637 4.659zm-18.327-2.588l.637-4.66 4.582.647-.637 4.66zm-18.326-2.588l.637-4.66 4.582.647-.637 4.66zm-18.325-2.588l.636-4.66 4.581.647-.636 4.66zm-18.327-2.588l.637-4.659 4.581.646-.637 4.66zm-18.326-2.587l.637-4.66 4.6.649-.637 4.66zm-18.326-2.588l.636-4.66 4.582.647-.636 4.66zm-18.327-2.588l.637-4.66 4.582.647-.637 4.66zm-18.325-2.588l.637-4.66 4.581.647-.637 4.66zm-18.326-2.588l.636-4.66 4.581.647-.636 4.66zm-18.327-2.588l.637-4.659 4.583.647-.637 4.66zm-18.326-2.587l.637-4.66 4.582.647-.637 4.66zm-18.325-2.588l.637-4.66 4.595.649-.637 4.66zm-18.327-2.588l.637-4.66 4.581.647-.637 4.66zm-18.326-2.588l.637-4.66 4.581.647-.637 4.66zm-18.326-2.588l.637-4.659 4.581.647-.636 4.659zm-18.326-2.587l.636-4.66 4.582.647-.637 4.659zm-18.326-2.588l.637-4.66 4.581.647-.637 4.66zm-18.326-2.588l.637-4.66 4.58.647-.636 4.66zm-18.326-2.588l.636-4.66 4.582.647-.637 4.66zm-18.327-2.588l.637-4.66 4.582.647-.637 4.66zm-18.326-2.588l.637-4.659 4.6.649-.636 4.66zm-18.326-2.587l.636-4.66 4.581.647-.637 4.659zm-18.305-2.585l.637-4.66 4.581.647-.637 4.66zm753.4 88.794l.637-4.661 4.581.647-.637 4.661zm-18.318-2.587l.637-4.661 4.581.647-.637 4.661zm-18.326-2.587l.637-4.661 4.581.647-.636 4.661zm-18.328-2.588l.637-4.661 4.583.647-.637 4.661zm-18.325-2.588l.637-4.661 4.574.646-.636 4.661zm-18.326-2.588l.637-4.661 4.58.647-.636 4.661zm-18.327-2.588l.637-4.661 4.581.647-.637 4.661zm-18.326-2.588l.637-4.661 4.582.647-.637 4.661zm-18.325-2.587l.637-4.661 4.581.647-.636 4.661zm-18.327-2.588l.637-4.661 4.581.647-.637 4.661zm-18.326-2.588l.637-4.661 4.581.647-.637 4.661zm-18.326-2.588l.637-4.661 4.582.647-.637 4.661zm-18.326-2.588l.636-4.661 4.582.647-.637 4.661zm-18.326-2.588l.637-4.66 4.581.646-.637 4.661zm-18.326-2.587l.637-4.661 4.581.647-.637 4.66zm-18.326-2.588l.636-4.661 4.581.647-.637 4.661zm-18.01-2.543l.637-4.661 4.582.647-.637 4.661zm-18.325-2.588l.637-4.661 4.581.647-.637 4.661zm-18.326-2.588l.637-4.661 4.58.647-.637 4.661zm-18.327-2.588l.637-4.661 4.582.647-.637 4.661zm-18.326-2.588l.637-4.66 4.582.647-.637 4.66zm-18.325-2.587l.637-4.661 4.58.647-.636 4.661zm-18.327-2.588l.637-4.661 4.581.647-.637 4.661zm-18.326-2.588l.637-4.661 4.581.647-.637 4.661zm-18.326-2.588l.637-4.661 4.581.647-.636 4.661zm-18.327-2.588l.637-4.661 4.582.647-.637 4.661zm-18.325-2.587l.637-4.661 4.581.647-.637 4.66zm-18.32-2.587l.637-4.661 4.581.647-.637 4.661zm-18.326-2.588l.637-4.661 4.582.647-.636 4.661zm-18.327-2.588l.637-4.661 4.582.647-.637 4.661zm-18.325-2.588l.637-4.661 4.574.646-.637 4.661zm-18.326-2.588l.637-4.66 4.58.646-.636 4.661zm-18.327-2.587l.637-4.661 4.581.647-.637 4.66zm-18.326-2.588l.637-4.661 4.582.647-.637 4.661zm-18.326-2.588l.637-4.661 4.582.647-.637 4.661zm-18.325-2.588l.636-4.661 4.581.647-.637 4.661zm-18.327-2.588l.637-4.661 4.581.647-.637 4.661zm-18.328-2.588l.637-4.661 4.582.647-.637 4.661zm-18.326-2.588l.636-4.661 4.582.647-.637 4.661zm-18.327-2.588l.637-4.66 4.582.647-.637 4.66zm-18.326-2.587l.637-4.661 4.581.647-.637 4.66zm-18.324-2.588l.636-4.661 4.581.647-.637 4.661zm753.581 87.413l.637-4.661 4.58.647-.636 4.661zm-18.327-2.588l.637-4.661 4.581.647-.637 4.661zm-18.326-2.588l.637-4.661 4.582.647-.637 4.661zm-18.327-2.588l.637-4.661 4.583.647-.637 4.661zm-18.326-2.588l.637-4.661 4.59.648-.637 4.661zm-18.326-2.588l.637-4.66 4.581.646-.637 4.661zm-18.326-2.587l.637-4.661 4.581.647-.637 4.66zm-18.326-2.588l.636-4.661 4.582.647-.637 4.661zm-18.327-2.588l.637-4.661 4.582.647-.637 4.661zm-18.326-2.588l.637-4.661 4.581.647-.637 4.661zm-18.326-2.588l.637-4.661 4.58.647-.637 4.661zm-18.327-2.588l.637-4.661 4.582.647-.637 4.661zm-18.32-2.594l.637-4.661 4.582.647-.637 4.661zm-18.325-2.588l.637-4.661 4.58.647-.636 4.661zm-18.327-2.588l.637-4.661 4.581.647-.637 4.661zm-18.326-2.588l.637-4.661 4.581.647-.637 4.661zm-18.009-2.543l.637-4.661 4.6.649-.637 4.661zm-18.325-2.588l.636-4.661 4.581.647-.637 4.661zm-18.327-2.587l.637-4.661 4.581.646-.637 4.661zm-18.326-2.588l.637-4.661 4.582.647-.637 4.661zm-18.326-2.588l.636-4.661 4.582.647-.637 4.661zm-18.326-2.588l.637-4.661 4.581.647-.637 4.661zm-18.326-2.588l.637-4.661 4.581.647-.637 4.661zm-18.326-2.588l.636-4.66 4.6.649-.637 4.66zm-18.327-2.587l.637-4.661 4.582.647-.637 4.661zm-18.326-2.588l.637-4.661 4.582.647-.637 4.661zm-18.325-2.588l.637-4.661 4.58.647-.637 4.661zm-18.327-2.588l.637-4.661 4.581.647-.637 4.661zm-18.326-2.588l.637-4.661 4.583.648-.637 4.66zm-18.326-2.588l.637-4.66 4.581.647-.636 4.66zm-18.326-2.587l.637-4.661 4.6.649-.637 4.661zm-18.326-2.588l.637-4.661 4.581.647-.637 4.661zm-18.326-2.588l.637-4.661 4.58.647-.636 4.661zm-18.327-2.588l.637-4.661 4.582.647-.637 4.661zm-18.326-2.588l.637-4.661 4.582.647-.637 4.661zm-18.325-2.587l.637-4.661 4.58.647-.636 4.661zm-18.327-2.588l.637-4.661 4.581.647-.637 4.661zm-18.326-2.588l.637-4.661 4.582.647-.637 4.661zm-18.326-2.588l.637-4.661 4.582.647-.637 4.661zm-18.326-2.588l.636-4.661 4.6.65-.637 4.661zm-18.327-2.588l.637-4.66 4.581.646-.637 4.661zm-18.3-2.583l.636-4.661 4.581.647-.637 4.661zm753.581 87.412l.636-4.66 4.581.647-.636 4.66zm-18.327-2.588l.637-4.659 4.581.646-.637 4.66zm-18.326-2.587l.637-4.66 4.582.647-.637 4.66zm-18.327-2.588l.636-4.66 4.583.647-.636 4.66zm-18.326-2.588l.637-4.66 4.589.648-.636 4.66zm-18.326-2.588l.637-4.66 4.581.647-.637 4.66zm-18.326-2.588l.637-4.66 4.58.647-.636 4.66zm-18.326-2.588l.636-4.659 4.582.647-.637 4.659zm-18.327-2.587l.637-4.66 4.582.647-.637 4.66zm-18.326-2.588l.637-4.66 4.58.647-.636 4.66zm-18.326-2.588l.636-4.66 4.581.647-.637 4.66zm-18.327-2.588l.637-4.66 4.582.647-.637 4.66zm-18.326-2.588l.637-4.66 4.582.647-.637 4.66zm-18.325-2.588l.636-4.659 4.581.646-.636 4.66zm-18.327-2.587l.637-4.66 4.581.647-.637 4.659zm-18.326-2.588l.637-4.66 4.581.647-.637 4.66zm-18.009-2.543l.637-4.66 4.6.649-.637 4.66zm-18.325-2.588l.636-4.66 4.581.647-.637 4.66zm-18.339-2.586l.637-4.66 4.581.647-.637 4.66zm-18.326-2.588l.637-4.66 4.581.647-.636 4.66zm-18.326-2.588l.636-4.659 4.582.647-.637 4.659zm-18.326-2.587l.637-4.66 4.581.647-.637 4.66zm-18.326-2.588l.637-4.66 4.58.647-.636 4.66zm-18.326-2.588l.636-4.66 4.6.649-.637 4.66zm-18.327-2.588l.637-4.66 4.582.647-.637 4.66zm-18.326-2.588l.637-4.66 4.581.647-.636 4.66zm-18.325-2.587l.636-4.66 4.581.647-.637 4.659zm-18.327-2.588l.637-4.66 4.581.647-.637 4.66zm-18.326-2.588l.637-4.66 4.583.647-.637 4.66zm-18.326-2.588l.636-4.66 4.582.647-.637 4.66zm-18.326-2.588l.637-4.659 4.6.648-.637 4.66zm-18.326-2.588l.637-4.659 4.581.647-.637 4.659zm-18.326-2.587l.636-4.66 4.581.647-.637 4.66zm-18.327-2.588l.637-4.66 4.582.647-.637 4.66zm-18.326-2.588l.637-4.66 4.582.647-.637 4.66zm-18.325-2.588l.637-4.66 4.58.647-.636 4.66zm-18.327-2.588l.637-4.659 4.581.646-.637 4.66zm-18.326-2.587l.637-4.66 4.582.647-.637 4.66zm-18.326-2.588l.637-4.66 4.581.647-.636 4.66zm-18.327-2.588l.637-4.66 4.6.65-.637 4.66zm-18.326-2.588l.637-4.66 4.581.647-.637 4.66zm-18.3-2.586l.637-4.66 4.58.647-.636 4.66zm753.581 87.413l.637-4.663 4.581.647-.637 4.659zm-18.326-2.588l.637-4.663 4.581.647-.637 4.66zm-18.327-2.588l.638-4.663 4.581.647-.636 4.66zm-18.327-2.588l.637-4.663 4.583.647-.637 4.66zM1906 521.223l.637-4.663 4.589.648-.637 4.66zm-18.327-2.587l.638-4.663 4.58.646-.636 4.66zm-18.326-2.588l.637-4.663 4.581.647-.637 4.659zm-18.326-2.588l.637-4.663 4.582.647-.637 4.66zm-18.327-2.588l.638-4.663 4.581.647-.636 4.66zm-18.326-2.588l.637-4.663 4.581.647-.637 4.66zm-18.326-2.588l.637-4.663 4.581.647-.637 4.66zm-18.326-2.588l.637-4.663 4.582.647-.637 4.66zm-18.327-2.587l.637-4.663 4.582.647-.636 4.659zm-18.325-2.588l.637-4.663 4.581.647-.637 4.66zm-18.326-2.588l.637-4.663 4.581.647-.637 4.66zm-18.327-2.588l.637-4.663 4.581.647-.636 4.66zm-18.009-2.543l.637-4.663 4.6.649-.637 4.66zm-18.325-2.588l.637-4.663 4.581.647-.637 4.66zm-18.327-2.587l.638-4.663 4.58.646-.636 4.66zm-18.326-2.588l.637-4.663 4.582.647-.637 4.66zm-18.326-2.588l.637-4.663 4.582.647-.637 4.66zm-18.326-2.588l.638-4.663 4.58.647-.636 4.66zm-18.326-2.588l.637-4.663 4.581.647-.637 4.66zm-18.326-2.587l.637-4.664 4.6.65-.636 4.659zm-18.327-2.588l.638-4.663 4.581.647-.636 4.659zm-18.326-2.588l.637-4.663 4.582.647-.637 4.66zm-18.325-2.588l.637-4.663 4.581.647-.637 4.66zm-18.326-2.588l.637-4.663 4.58.647-.636 4.66zm-18.327-2.588l.637-4.663 4.583.648-.637 4.659zm-18.326-2.587l.637-4.663 4.582.647-.637 4.659zm-18.325-2.588l.637-4.663 4.595.649-.637 4.66zm-18.327-2.588l.637-4.663 4.581.647-.636 4.66zm-18.326-2.588l.637-4.663 4.581.647-.637 4.66zm-18.326-2.588l.637-4.663 4.582.647-.637 4.66zm-18.327-2.588l.637-4.663 4.582.647-.636 4.66zm-18.325-2.587l.637-4.663 4.581.647-.637 4.659zm-18.326-2.588l.637-4.663 4.581.647-.637 4.66zm-18.327-2.588l.638-4.663 4.581.647-.636 4.66zm-18.326-2.588l.637-4.663 4.582.647-.637 4.66zm-18.326-2.588l.637-4.663 4.6.65-.637 4.66zm-18.327-2.587l.638-4.663 4.58.646-.636 4.66zm-18.3-2.584l.637-4.664 4.581.647-.637 4.659zm753.581 87.412l.637-4.66 4.581.646-.637 4.66zm-18.326-2.587l.637-4.661 4.58.647-.636 4.659zm-18.33-2.588l.637-4.661 4.582.647-.637 4.66zm-18.327-2.588l.637-4.661 4.583.647-.637 4.66zm-18.325-2.588l.637-4.661 4.589.648-.637 4.66zM1890.222 500l.637-4.661 4.581.647-.637 4.66zm-18.326-2.588l.637-4.661 4.581.647-.637 4.66zm-18.326-2.588l.637-4.66 4.581.647-.636 4.659zm-18.327-2.587l.637-4.661 4.582.647-.637 4.66zm-18.326-2.588l.637-4.661 4.581.647-.637 4.66zm-18.326-2.588l.637-4.661 4.581.647-.637 4.66zm-18.326-2.588l.636-4.661 4.582.647-.637 4.66zm-18.327-2.588l.637-4.661 4.582.647-.637 4.66zm-18.325-2.587l.637-4.661 4.581.646-.637 4.66zm-18.326-2.588l.636-4.661 4.581.647-.636 4.659zm-18.327-2.588l.637-4.661 4.581.647-.637 4.66zm-18.009-2.543l.637-4.661 4.6.649-.636 4.66zm-18.325-2.588l.637-4.661 4.58.647-.636 4.66zM1652.3 466.4l.637-4.661 4.581.647-.637 4.66zm-18.326-2.588l.637-4.661 4.582.647-.637 4.66zm-18.326-2.587l.637-4.661 4.581.647-.636 4.659zm-18.326-2.588l.637-4.661 4.581.647-.637 4.66zm-18.326-2.588l.637-4.661 4.581.647-.637 4.66zm-18.326-2.588l.637-4.661 4.6.649-.637 4.66zm-18.327-2.588l.637-4.661 4.582.647-.637 4.66zm-18.326-2.588l.637-4.66 4.582.647-.637 4.659zm-18.325-2.587l.637-4.661 4.58.647-.636 4.659zm-18.327-2.588l.637-4.661 4.581.647-.637 4.66zm-18.326-2.588l.637-4.661 4.583.647-.637 4.66zm-18.326-2.588l.637-4.661 4.582.647-.637 4.66zm-18.325-2.588l.636-4.66 4.6.648-.637 4.66zm-18.327-2.587l.637-4.661 4.581.647-.637 4.659zm-18.326-2.588l.637-4.661 4.581.647-.637 4.66zm-18.326-2.588l.636-4.661 4.582.647-.636 4.66zm-18.327-2.588l.637-4.661 4.582.647-.637 4.66zm-18.325-2.588l.637-4.661 4.581.647-.637 4.66zm-18.326-2.587l.637-4.661 4.58.646-.636 4.66zm-18.327-2.588l.637-4.661 4.582.647-.637 4.66zm-18.326-2.588l.637-4.661 4.582.647-.637 4.66zm-18.326-2.588l.637-4.661 4.6.65-.637 4.66zm-18.327-2.588l.637-4.661 4.581.647-.637 4.66zm-18.3-2.586l.637-4.66 4.581.647-.637 4.66zM1984.4 494.3l.636-4.658 4.581.647-.637 4.661zm-18.326-2.588l.636-4.658 4.581.647-.637 4.661zm-18.327-2.588l.637-4.657 4.582.647-.637 4.66zm-18.327-2.588l.637-4.657 4.582.647-.636 4.661zm-18.325-2.587l.636-4.658 4.589.648-.636 4.661zm-18.327-2.588l.637-4.658 4.581.647-.637 4.661zm-18.326-2.588l.637-4.658 4.58.647-.636 4.661zm-18.326-2.588l.636-4.658 4.582.647-.637 4.661zm-18.326-2.588l.636-4.658 4.582.647-.637 4.661zM1819.464 471l.637-4.657 4.58.646-.636 4.661zm-18.326-2.588l.636-4.657 4.581.647-.637 4.66zm-18.326-2.587l.636-4.658 4.582.647-.637 4.661zm-18.327-2.588l.637-4.658 4.582.647-.637 4.661zm-18.325-2.588l.636-4.658 4.581.647-.637 4.661zm-18.326-2.588l.636-4.658 4.581.647-.637 4.661zm-18.327-2.588l.637-4.657 4.581.646-.637 4.661zm-18.009-2.543l.637-4.657 4.6.649-.637 4.661zm-18.325-2.587l.636-4.658 4.581.647-.637 4.661zm-18.326-2.588l.636-4.658 4.581.647-.637 4.661zm-18.327-2.588l.637-4.658 4.581.647-.636 4.661zm-18.326-2.588l.636-4.658 4.582.647-.637 4.661zm-18.325-2.588l.636-4.657 4.581.646-.637 4.661zm-18.327-2.587l.637-4.658 4.58.647-.636 4.661zm-18.326-2.588l.636-4.658 4.6.649-.637 4.661zm-18.326-2.588l.636-4.658 4.582.647-.637 4.661zm-18.327-2.588l.637-4.658 4.582.647-.637 4.661zm-18.325-2.588l.636-4.657 4.581.646-.637 4.661zm-18.326-2.588l.636-4.657 4.581.647-.637 4.66zm-18.327-2.587l.637-4.658 4.583.647-.637 4.661zm-18.326-2.588l.636-4.658 4.582.647-.637 4.661zm-18.325-2.588l.636-4.658 4.6.649-.637 4.661zm-18.327-2.588l.637-4.658 4.581.647-.637 4.661zm-18.326-2.588l.636-4.657 4.581.646-.637 4.661zm-18.326-2.588l.636-4.657 4.582.647-.637 4.661zm-18.327-2.587l.637-4.658 4.582.647-.637 4.661zm-18.325-2.588l.637-4.658 4.58.647-.637 4.661zm-18.326-2.588l.636-4.658 4.581.647-.637 4.661zm-18.327-2.588l.637-4.658 4.582.647-.637 4.661zM1288.324 396l.637-4.657 4.581.647-.636 4.661zM1270 393.415l.636-4.658 4.6.65-.637 4.66zm-18.327-2.588l.637-4.658 4.581.647-.637 4.661zm-18.3-2.584l.636-4.659 4.581.647-.637 4.661zm753.581 87.413l.637-4.661 4.581.647-.637 4.66zm-18.326-2.588l.637-4.661 4.58.647-.637 4.661zm-18.328-2.588l.637-4.661 4.582.647-.637 4.661zm-18.327-2.588l.637-4.661 4.583.647-.637 4.661zm-18.325-2.588l.637-4.661 4.589.648-.637 4.661zm-18.327-2.588l.637-4.661 4.581.647-.637 4.661zm-18.326-2.587l.637-4.661 4.581.646-.637 4.661zm-18.326-2.588l.637-4.661 4.582.647-.637 4.661zm-18.326-2.588l.636-4.661 4.582.647-.637 4.661zm-18.327-2.588l.637-4.661 4.581.647-.637 4.661zm-18.326-2.588l.637-4.661 4.581.647-.637 4.661zm-18.326-2.588l.636-4.661 4.582.647-.637 4.661zm-18.327-2.588l.637-4.66 4.582.647-.637 4.66zm-18.325-2.587l.637-4.661 4.581.647-.637 4.661zm-18.326-2.588l.637-4.661 4.58.647-.637 4.661zm-18.327-2.588l.637-4.661 4.581.647-.637 4.661zm-18.009-2.543l.637-4.661 4.6.649-.636 4.661zm-18.325-2.588l.637-4.661 4.58.647-.636 4.661zm-18.327-2.588l.637-4.661 4.581.647-.637 4.661zm-18.326-2.587l.637-4.661 4.582.647-.637 4.661zm-18.326-2.588l.637-4.661 4.582.647-.637 4.661zm-18.325-2.588l.636-4.661 4.581.647L1607 422zm-18.327-2.588l.637-4.661 4.581.647-.637 4.661zm-18.326-2.588l.637-4.661 4.6.649-.637 4.661zm-18.326-2.588l.636-4.66 4.582.647-.637 4.66zm-18.327-2.587l.637-4.661 4.582.647-.637 4.661zm-18.325-2.588l.637-4.661 4.581.647-.637 4.661zm-18.326-2.588l.636-4.661 4.581.647-.637 4.661zm-18.327-2.588l.637-4.661 4.583.647-.637 4.661zm-18.326-2.588l.637-4.661 4.582.647-.637 4.661zm-18.325-2.587l.637-4.661 4.595.649-.637 4.661zm-18.327-2.588l.637-4.661 4.581.647-.637 4.661zm-18.326-2.588l.637-4.661 4.581.647-.637 4.661zm-18.333-2.59l.637-4.661 4.581.647-.636 4.661zm-18.327-2.588l.637-4.661 4.582.647-.637 4.661zm-18.325-2.587l.637-4.661 4.581.646-.637 4.661zm-18.326-2.588l.637-4.661 4.58.647-.636 4.661zm-18.327-2.588l.637-4.661 4.582.647-.637 4.661zm-18.326-2.588l.637-4.661 4.582.647-.637 4.661zm-18.326-2.588l.637-4.661 4.6.65-.637 4.661zm-18.327-2.588l.637-4.661 4.581.647-.637 4.661zm-18.3-2.586l.637-4.66 4.581.646-.637 4.661zm753.581 87.413l.637-4.66 4.581.647-.637 4.66zm-18.326-2.588l.637-4.66 4.58.647-.636 4.66zm-18.326-2.588l.636-4.659 4.582.647-.637 4.659zm-18.328-2.588l.637-4.659 4.583.647-.637 4.66zm-18.325-2.587l.637-4.66 4.589.648-.637 4.66zm-18.326-2.588l.636-4.66 4.581.647-.637 4.66zm-18.327-2.588l.637-4.66 4.581.647-.637 4.66zm-18.326-2.588l.637-4.66 4.582.647-.637 4.66zm-18.326-2.588l.636-4.66 4.582.647-.636 4.66zm-18.327-2.588l.637-4.659 4.581.646-.637 4.66zm-18.326-2.587l.637-4.66 4.581.647-.637 4.659zm-18.326-2.588l.637-4.66 4.581.647-.636 4.66zm-18.326-2.588l.636-4.66 4.582.647-.637 4.66zm-18.326-2.588l.637-4.66 4.581.647-.637 4.66zm-18.326-2.588l.637-4.659 4.58.646-.636 4.66zm-18.33-2.582l.636-4.66 4.581.647-.637 4.659zm-18.01-2.544l.637-4.659 4.6.649-.637 4.66zm-18.325-2.587l.637-4.66 4.581.647-.637 4.66zm-18.326-2.588l.636-4.66 4.581.647-.636 4.66zm-18.327-2.588l.637-4.66 4.582.647-.637 4.66zm-18.326-2.588l.637-4.66 4.582.647-.637 4.66zm-18.325-2.588l.636-4.659 4.581.647-.636 4.659zm-18.327-2.587l.637-4.66 4.581.647-.637 4.659zm-18.326-2.588l.637-4.66 4.6.649-.636 4.66zm-18.326-2.588l.636-4.66 4.582.647-.636 4.66zm-18.327-2.588l.637-4.66 4.582.647-.637 4.66zm-18.325-2.588l.637-4.659 4.581.646-.637 4.66zm-18.326-2.587l.637-4.66 4.58.647-.636 4.659zm-18.327-2.588l.637-4.66 4.583.647-.637 4.66zm-18.326-2.588l.637-4.66 4.582.647-.637 4.66zm-18.325-2.588l.637-4.66 4.595.649-.637 4.66zm-18.326-2.588l.636-4.66 4.581.647-.637 4.66zm-18.327-2.588l.637-4.659 4.581.646-.637 4.66zm-18.326-2.587l.637-4.66 4.581.647-.636 4.66zm-18.326-2.588l.636-4.66 4.582.647-.637 4.66zm-18.326-2.588l.637-4.66 4.581.647-.637 4.66zm-18.326-2.588l.637-4.66 4.581.647-.637 4.66zm-18.326-2.588l.636-4.659 4.582.647-.636 4.659zm-18.327-2.588l.637-4.659 4.582.647-.637 4.659zm-18.326-2.587l.637-4.66 4.6.65-.636 4.659zm-18.326-2.588l.636-4.66 4.581.647-.636 4.66zm-18.3-2.585l.637-4.66 4.581.647-.637 4.66zm753.581 87.413l.637-4.659 4.581.647-.637 4.66zm-18.326-2.588l.637-4.659 4.58.647-.636 4.66zm-18.329-2.589l.636-4.659 4.582.647-.637 4.66zm-18.328-2.588l.637-4.659 4.583.647-.637 4.66zm-18.325-2.588l.637-4.659 4.589.648-.637 4.66zm-18.326-2.588l.636-4.658 4.581.646-.637 4.66zm-18.327-2.587l.637-4.659 4.581.647-.637 4.659zm-18.326-2.588l.637-4.659 4.582.647-.637 4.66zm-18.326-2.588l.636-4.659 4.582.647-.636 4.66zm-18.326-2.588l.636-4.659 4.581.647-.637 4.66zm-18.327-2.588l.637-4.659 4.581.647-.637 4.66zm-18.326-2.588l.637-4.658 4.581.647-.636 4.659zm-18.326-2.588l.636-4.658 4.582.647-.637 4.66zm-18.326-2.587l.637-4.659 4.581.647-.637 4.66zm-18.326-2.588l.637-4.659 4.58.647-.636 4.66zm-18.326-2.588l.636-4.659 4.581.647-.637 4.66zm-18.01-2.543l.637-4.659 4.6.649-.636 4.66zm-18.325-2.588l.637-4.659 4.581.647-.637 4.66zm-18.326-2.588l.636-4.658 4.581.646-.637 4.66zm-18.327-2.587l.637-4.659 4.582.647-.637 4.66zm-18.326-2.588l.637-4.659 4.582.647-.637 4.66zm-18.325-2.588l.636-4.659 4.581.647-.636 4.66zm-18.326-2.588l.636-4.659 4.581.647-.637 4.66zm-18.327-2.588l.637-4.658 4.6.649-.637 4.659zm-18.326-2.588l.636-4.658 4.582.647-.636 4.66zm-18.326-2.587l.636-4.659 4.582.647-.637 4.66zm-18.326-2.588l.637-4.659 4.581.647-.637 4.66zm-18.326-2.588l.637-4.659 4.58.647-.636 4.66zm-18.326-2.588l.636-4.659 4.583.648-.637 4.659zm-18.327-2.588l.637-4.658 4.582.647-.637 4.659zm-18.325-2.587l.637-4.659 4.595.649-.637 4.66zm-18.326-2.588l.636-4.659 4.581.647-.637 4.66zm-18.327-2.588l.637-4.659 4.581.647-.637 4.66zm-18.322-2.59l.637-4.659 4.581.647-.636 4.66zm-18.326-2.588l.636-4.659 4.582.647-.637 4.66zm-18.326-2.587l.637-4.659 4.581.647-.637 4.659zm-18.326-2.588l.637-4.659 4.58.647-.636 4.66zm-18.326-2.588l.636-4.659 4.582.647-.637 4.66zm-18.327-2.588l.637-4.659 4.582.647-.637 4.66zm-18.326-2.588l.637-4.659 4.6.65-.636 4.66zm-18.326-2.588l.636-4.658 4.581.646-.637 4.66zm-18.3-2.584l.637-4.659 4.581.647-.637 4.659zm753.581 87.412l.637-4.661 4.581.647-.637 4.661zm-18.326-2.588l.637-4.661 4.581.647-.637 4.661zm-18.326-2.587l.637-4.661 4.582.647-.637 4.66zm-18.328-2.588l.637-4.661 4.583.647-.637 4.661zm-18.325-2.588l.637-4.661 4.589.648-.637 4.661zm-18.326-2.588l.637-4.661 4.581.647-.637 4.661zm-18.326-2.588l.636-4.661 4.581.647-.637 4.661zm-18.327-2.588l.637-4.661 4.582.647-.637 4.661zm-18.326-2.588l.637-4.66 4.582.647-.637 4.66zm-18.326-2.587l.637-4.661 4.58.647-.637 4.66zm-18.327-2.588l.637-4.661 4.581.647-.637 4.661zM1793 391.267l.637-4.661 4.582.647-.637 4.661zm-18.326-2.588l.637-4.661 4.581.647-.636 4.661zm-18.326-2.588l.637-4.661 4.581.647-.637 4.661zm-18.326-2.588l.637-4.66 4.581.646-.637 4.661zm-18.326-2.587l.637-4.661 4.58.647-.636 4.66zm-18.009-2.543l.636-4.661 4.6.649-.637 4.661zm-18.326-2.588l.637-4.661 4.581.647-.637 4.661zm-18.326-2.588l.637-4.661 4.581.647-.637 4.661zm-18.326-2.588l.636-4.661 4.582.647-.637 4.661zm-18.327-2.588l.637-4.661 4.582.647-.637 4.661zm-18.325-2.587l.637-4.661 4.581.647-.637 4.66zm-18.326-2.588l.637-4.661 4.58.647-.637 4.661zm-18.327-2.588l.637-4.661 4.6.649-.637 4.661zm-18.326-2.588l.637-4.661 4.582.647-.637 4.661zm-18.326-2.588l.637-4.661 4.581.647-.637 4.661zm-18.326-2.588l.637-4.66 4.581.646-.637 4.661zm-18.326-2.587l.637-4.661 4.581.647-.637 4.66zm-18.326-2.588l.637-4.661 4.582.647-.636 4.661zm-18.327-2.588l.637-4.661 4.582.647-.637 4.661zm-18.325-2.588l.637-4.661 4.595.649-.636 4.661zm-18.326-2.588l.637-4.661 4.58.647-.636 4.661zm-18.327-2.587l.637-4.661 4.581.647-.637 4.66zm-18.326-2.588l.637-4.661 4.582.647-.637 4.661zm-18.326-2.588l.637-4.661 4.582.647-.637 4.661zm-18.325-2.588l.636-4.661 4.581.647-.637 4.661zm-18.327-2.588l.637-4.661 4.581.647-.637 4.661zm-18.326-2.588l.637-4.66 4.582.647-.637 4.66zm-18.326-2.587l.636-4.661 4.582.647-.637 4.661zm-18.327-2.588l.637-4.661 4.6.65-.637 4.661zm-18.326-2.588l.637-4.661 4.581.647-.637 4.661zm-18.3-2.584l.637-4.661 4.581.647-.637 4.661zm753.576 87.419l.637-4.661 4.581.647-.637 4.661zm-18.326-2.588l.637-4.661 4.581.647-.637 4.661zm-18.326-2.588l.637-4.661 4.581.647-.637 4.661zm-18.328-2.588l.637-4.661 4.583.647-.637 4.661zm-18.325-2.588l.637-4.66 4.589.648-.637 4.661zm-18.326-2.587l.637-4.661 4.58.647-.636 4.66zm-18.327-2.588l.637-4.661 4.581.647-.637 4.661zm-18.326-2.588l.637-4.661 4.582.647-.637 4.661zm-18.326-2.588l.637-4.661 4.581.647-.636 4.661zM1832.2 377.8l.637-4.661 4.581.647-.637 4.661zm-18.326-2.588l.637-4.661 4.581.647-.637 4.661zm-18.326-2.587l.637-4.661 4.582.647-.637 4.661zm-18.326-2.588l.636-4.661 4.582.647-.637 4.661zm-18.326-2.588l.637-4.661 4.581.647-.637 4.661zm-18.326-2.588l.637-4.661 4.581.647-.637 4.661zm-18.326-2.588l.637-4.661 4.58.647-.637 4.661zm-18.01-2.543l.637-4.661 4.6.65-.637 4.66zm-18.325-2.587l.637-4.661 4.581.646-.637 4.661zm-18.326-2.588l.637-4.661 4.58.647-.636 4.661zm-18.327-2.588l.637-4.661 4.582.647-.637 4.661zm-18.326-2.588l.637-4.661 4.582.647-.637 4.661zm-18.33-2.579l.637-4.661 4.58.647-.636 4.661zm-18.327-2.588l.637-4.66 4.581.646-.637 4.661zm-18.326-2.587l.637-4.661 4.6.649-.636 4.661zm-18.326-2.588l.637-4.661 4.582.647-.637 4.661zm-18.327-2.588l.637-4.661 4.582.647-.637 4.661zm-18.325-2.588l.637-4.661 4.581.647-.637 4.661zm-18.326-2.588l.637-4.661 4.581.647-.637 4.661zm-18.326-2.588l.636-4.66 4.583.647-.637 4.661zm-18.327-2.587l.637-4.661 4.582.647-.637 4.661zm-18.325-2.588l.637-4.661 4.595.649-.637 4.661zm-18.326-2.588l.636-4.661 4.581.647-.637 4.661zm-18.327-2.588l.637-4.661 4.581.647-.637 4.661zm-18.326-2.588l.637-4.661 4.582.647-.637 4.661zm-18.326-2.587l.637-4.661 4.581.647-.637 4.661zm-18.326-2.588l.637-4.661 4.581.647-.637 4.661zm-18.326-2.588l.637-4.661 4.581.647-.637 4.661zm-18.326-2.588l.637-4.661 4.581.647-.636 4.661zm-18.327-2.588l.637-4.661 4.582.647-.637 4.661zm-18.326-2.588l.637-4.66 4.6.649-.637 4.661zm-18.326-2.587l.637-4.661 4.58.647-.636 4.66zm-18.3-2.586l.637-4.661 4.581.647-.637 4.661zm753.582 87.412l.636-4.659 4.581.646-.637 4.66zm-18.327-2.587l.637-4.66 4.581.647-.637 4.659zm-18.326-2.588l.637-4.66 4.581.647-.636 4.66zm-18.332-2.593l.636-4.66 4.583.647-.637 4.66zm-18.326-2.588l.637-4.66 4.589.648-.636 4.66zm-18.326-2.588l.637-4.66 4.581.647-.637 4.66zm-18.326-2.588l.636-4.66 4.581.647-.637 4.66zm-18.327-2.588l.637-4.659 4.582.647-.637 4.659zm-18.326-2.587l.637-4.66 4.582.647-.637 4.66zm-18.326-2.588l.636-4.66 4.581.647-.636 4.66zm-18.327-2.588l.637-4.66 4.581.647-.637 4.66zm-18.326-2.588l.637-4.66 4.582.647-.637 4.66zm-18.326-2.588l.637-4.66 4.581.647-.636 4.66zm-18.325-2.588l.636-4.659 4.581.646-.637 4.66zm-18.327-2.587l.637-4.66 4.581.647-.637 4.659zm-18.326-2.588l.637-4.66 4.58.647-.636 4.66zm-18.009-2.543l.636-4.66 4.6.649-.637 4.66zm-18.326-2.588l.637-4.66 4.581.647-.637 4.66zm-18.326-2.588l.637-4.66 4.581.647-.637 4.66zm-18.326-2.588l.636-4.66 4.582.647-.636 4.66zm-18.327-2.588l.637-4.659 4.582.647-.637 4.659zm-18.325-2.587l.637-4.66 4.581.647-.637 4.66zm-18.326-2.588l.636-4.66 4.581.647-.636 4.66zm-18.327-2.588l.637-4.66 4.6.649-.637 4.66zm-18.326-2.588l.637-4.66 4.582.647-.637 4.66zm-18.326-2.588l.636-4.66 4.582.647-.636 4.66zm-18.326-2.587l.637-4.66 4.581.647-.637 4.659zm-18.326-2.588l.637-4.66 4.581.647-.637 4.66zm-18.326-2.588l.637-4.66 4.582.647-.636 4.66zm-18.327-2.588l.637-4.66 4.582.647-.637 4.66zm-18.325-2.588l.637-4.659 4.595.648-.636 4.66zm-18.326-2.587l.637-4.66 4.58.647-.636 4.659zm-18.326-2.588l.636-4.66 4.581.647-.637 4.66zm-18.327-2.588l.637-4.66 4.582.647-.637 4.66zm-18.326-2.588l.637-4.66 4.581.647-.636 4.66zm-18.325-2.588l.636-4.66 4.581.647-.637 4.66zm-18.327-2.588l.637-4.659 4.581.646-.637 4.66zm-18.326-2.587l.637-4.66 4.582.647-.637 4.66zm-18.326-2.588l.636-4.66 4.582.647-.637 4.66zm-18.327-2.588l.637-4.66 4.6.65-.637 4.66zm-18.326-2.588l.637-4.66 4.581.647-.637 4.66zm-18.3-2.585l.636-4.66 4.581.647-.637 4.66zm753.581 87.413l.636-4.66 4.581.647-.637 4.66zm-18.327-2.588l.637-4.66 4.581.647-.637 4.66zm-18.326-2.588l.637-4.66 4.582.647-.637 4.66zm-18.327-2.588l.636-4.66 4.583.648-.636 4.659zm-18.326-2.587l.637-4.66 4.589.648-.636 4.66zm-18.326-2.588l.637-4.66 4.581.647-.637 4.66zm-18.326-2.588l.637-4.66 4.58.647-.636 4.66zm-18.327-2.588l.637-4.66 4.582.647-.637 4.66zm-18.326-2.588l.637-4.66 4.582.647-.637 4.66zm-18.326-2.588l.637-4.66 4.58.647-.636 4.66zm-18.326-2.588l.636-4.659 4.581.646-.637 4.66zm-18.327-2.587l.637-4.66 4.582.647-.637 4.66zm-18.326-2.588l.637-4.66 4.581.647-.636 4.66zm-18.325-2.588l.636-4.66 4.581.647-.637 4.66zm-18.327-2.588l.637-4.66 4.581.647-.637 4.66zm-18.326-2.588l.637-4.66 4.581.647-.637 4.66zm-18.009-2.543l.636-4.66 4.6.65-.637 4.659zM1691 319.865l.637-4.66 4.581.647-.637 4.659zm-18.326-2.588l.637-4.66 4.581.647-.637 4.66zm-18.326-2.588l.637-4.66 4.581.647-.636 4.66zm-18.327-2.588l.637-4.66 4.582.647-.637 4.66zm-18.325-2.588l.637-4.66 4.581.647-.637 4.66zm-18.326-2.588l.637-4.659 4.58.646-.636 4.66zm-18.327-2.587l.637-4.66 4.6.649-.637 4.66zm-18.326-2.588l.637-4.66 4.582.647-.637 4.66zm-18.326-2.588l.637-4.66 4.581.647-.636 4.66zm-18.325-2.588l.636-4.66 4.581.647-.637 4.66zm-18.327-2.588l.637-4.66 4.581.647-.637 4.66zm-18.326-2.588l.637-4.659 4.582.647-.636 4.66zm-18.326-2.587l.636-4.66 4.582.647-.637 4.66zm-18.326-2.588l.637-4.66 4.595.649-.636 4.66zm-18.326-2.588l.637-4.66 4.58.647-.636 4.66zm-18.326-2.588l.636-4.66 4.581.647-.637 4.66zm-18.327-2.588l.637-4.659 4.582.647-.637 4.659zm-18.326-2.587l.637-4.66 4.582.647-.637 4.66zm-18.325-2.588l.636-4.66 4.581.647-.636 4.66zm-18.327-2.588l.637-4.66 4.581.647-.637 4.66zm-18.326-2.588l.637-4.66 4.582.647-.637 4.66zm-18.326-2.588l.636-4.66 4.582.647-.636 4.66zm-18.327-2.588l.637-4.659 4.6.649-.637 4.66zm-18.326-2.587l.637-4.66 4.581.647-.637 4.659zm-18.3-2.584l.637-4.66 4.581.647-.637 4.66zm753.582 87.413l.636-4.66 4.581.647-.637 4.659zm-18.327-2.588l.637-4.66 4.581.647-.637 4.66zM1968.125 340l.637-4.66 4.582.647-.637 4.66zm-18.325-2.59l.636-4.66 4.583.647-.636 4.66zm-18.326-2.588l.637-4.66 4.589.648-.636 4.66zm-18.326-2.588l.637-4.66 4.581.647-.637 4.66zm-18.326-2.588l.636-4.659 4.581.646-.636 4.66zm-18.327-2.587l.637-4.66 4.582.647-.637 4.66zm-18.326-2.588l.637-4.66 4.582.647-.637 4.66zm-18.326-2.588l.637-4.66 4.58.647-.636 4.66zm-18.326-2.588l.636-4.66 4.581.647-.637 4.66zm-18.327-2.588l.637-4.66 4.582.647-.637 4.66zm-18.326-2.588l.637-4.66 4.581.647-.636 4.66zm-18.325-2.587l.636-4.66 4.581.647-.637 4.659zm-18.327-2.588l.637-4.66 4.581.647-.637 4.66zm-18.326-2.588l.637-4.66 4.58.647-.636 4.66zm-18.009-2.543l.636-4.66 4.6.649-.637 4.66zm-18.326-2.588l.637-4.66 4.581.647-.637 4.66zm-18.326-2.588l.637-4.66 4.581.647-.637 4.66zm-18.326-2.588l.636-4.659 4.582.647-.636 4.659zm-18.327-2.587l.637-4.66 4.582.647-.637 4.66zm-18.325-2.588l.637-4.66 4.581.647-.637 4.66zm-18.326-2.588l.637-4.66 4.58.647-.636 4.66zm-18.327-2.588l.637-4.66 4.6.649-.637 4.66zm-18.326-2.588l.637-4.659 4.582.647-.637 4.659zm-18.326-2.587l.637-4.66 4.581.647-.636 4.66zm-18.326-2.588l.637-4.66 4.581.647-.637 4.66zm-18.326-2.588l.637-4.66 4.581.647-.637 4.66zm-18.326-2.588l.637-4.66 4.582.647-.636 4.66zm-18.326-2.588l.636-4.66 4.582.647-.637 4.66zm-18.326-2.587l.637-4.66 4.595.649-.636 4.659zM1436.984 265l.637-4.66 4.58.647-.636 4.66zm-18.326-2.588l.636-4.66 4.581.647-.637 4.66zm-18.327-2.588l.637-4.66 4.582.647-.637 4.66zm-18.326-2.588l.637-4.66 4.582.647-.637 4.66zm-18.325-2.588l.636-4.659 4.581.646-.637 4.66zm-18.327-2.587l.637-4.66 4.581.647-.637 4.659zm-18.326-2.588l.637-4.66 4.582.647-.637 4.66zm-18.326-2.588l.636-4.66 4.582.647-.636 4.66zm-18.327-2.588l.637-4.66 4.6.65-.637 4.66zm-18.326-2.588l.637-4.66 4.581.647-.637 4.66zm-18.3-2.586l.636-4.659 4.581.646-.636 4.66zm753.581 87.413l.637-4.661 4.581.647-.637 4.661zM1989 323.944l.636-4.661 4.581.647-.637 4.661zm-18.327-2.588l.637-4.661 4.582.647-.637 4.661zm-18.327-2.588l.637-4.661 4.583.648-.637 4.66zm-18.325-2.587l.636-4.661 4.59.648-.637 4.661zm-18.327-2.588l.637-4.661 4.581.647-.637 4.661zm-18.326-2.588l.637-4.661 4.581.647-.637 4.661zm-18.326-2.588l.637-4.661 4.581.647-.637 4.661zm-18.327-2.588l.637-4.661 4.582.647-.637 4.661zm-18.326-2.588l.637-4.661 4.581.647-.637 4.661zm-18.326-2.587l.637-4.661 4.58.647-.636 4.66zm-18.327-2.588l.637-4.661 4.582.647-.637 4.661zm-18.326-2.588l.637-4.661 4.582.647-.637 4.661zm-18.325-2.588l.637-4.661 4.581.647-.637 4.661zm-18.326-2.588l.636-4.661 4.581.647-.637 4.661zm-18.327-2.588l.637-4.66 4.581.646-.637 4.661zm-18.009-2.543l.637-4.661 4.6.65-.637 4.661zm-18.325-2.587l.637-4.661 4.58.647-.637 4.661zM1677.77 280l.637-4.661 4.581.647-.637 4.661zm-18.326-2.588l.637-4.661 4.582.647-.637 4.661zm-18.326-2.588l.637-4.661 4.581.647-.636 4.661zm-18.326-2.588l.637-4.66 4.581.646-.637 4.661zm-18.326-2.587l.637-4.661 4.581.647-.637 4.66zm-18.326-2.588l.637-4.661 4.6.649-.637 4.661zm-18.327-2.588l.637-4.661 4.582.647-.637 4.661zm-18.326-2.588l.637-4.661 4.582.647-.637 4.661zm-18.325-2.588l.637-4.661 4.58.647-.636 4.661zm-18.327-2.588l.637-4.66 4.581.646-.637 4.661zm-18.326-2.587l.637-4.661 4.583.647-.637 4.661zm-18.326-2.588l.637-4.661 4.582.647-.637 4.661zm-18.326-2.588l.637-4.661 4.6.649-.637 4.661zm-18.326-2.588l.637-4.661 4.581.647-.637 4.661zm-18.326-2.588l.637-4.661 4.581.647-.637 4.661zm-18.326-2.587l.636-4.661 4.582.647-.637 4.661zm-18.327-2.588l.637-4.661 4.582.647-.637 4.661zM1366.227 236l.637-4.661 4.581.647-.637 4.661zm-18.326-2.588l.636-4.661 4.581.647-.637 4.661zm-18.327-2.588l.637-4.661 4.582.647-.637 4.661zm-18.326-2.588l.637-4.66 4.582.647-.637 4.66zm-18.326-2.587l.637-4.661 4.6.649-.637 4.661zm-18.327-2.588l.637-4.661 4.581.647-.637 4.661zm-18.3-2.584l.637-4.661 4.58.647-.637 4.661zm753.581 87.413l.637-4.661 4.581.647-.637 4.66zm-18.326-2.588l.636-4.661 4.581.647-.637 4.661zm-18.327-2.588l.637-4.661 4.582.647-.637 4.661zm-18.327-2.588l.637-4.661 4.583.647-.637 4.661zm-18.325-2.588l.636-4.661 4.59.648-.637 4.661zm-18.327-2.588l.637-4.661 4.581.647-.637 4.661zm-18.326-2.587l.637-4.661 4.581.646-.637 4.661zm-18.326-2.588l.637-4.661 4.581.647-.637 4.661zm-18.327-2.588l.637-4.661 4.582.647-.637 4.661zm-18.326-2.588l.637-4.661 4.581.647-.637 4.661zm-18.326-2.588l.637-4.661 4.58.647-.636 4.661zm-18.327-2.588l.637-4.661 4.582.647-.637 4.661zm-18.326-2.588l.637-4.66 4.582.647-.637 4.66zm-18.325-2.587l.637-4.661 4.581.647-.637 4.661zm-18.327-2.588l.637-4.661 4.581.647-.637 4.661zm-18.326-2.588l.637-4.661 4.581.647-.637 4.661zm-18.009-2.543l.637-4.661 4.6.649-.637 4.661zm-18.325-2.588l.637-4.661 4.58.647-.637 4.661zm-18.327-2.588l.637-4.66 4.581.646-.639 4.661zm-18.326-2.587l.637-4.661 4.582.647-.637 4.661zm-18.326-2.588l.637-4.661 4.581.647-.637 4.661zm-18.326-2.588l.637-4.661 4.581.647-.637 4.661zm-18.326-2.588l.637-4.661 4.581.647-.637 4.661zm-18.326-2.588l.637-4.661 4.6.649-.637 4.661zm-18.327-2.588l.637-4.66 4.582.647-.637 4.66zm-18.326-2.587l.637-4.661 4.582.647-.637 4.661zm-18.325-2.588l.637-4.661 4.58.647-.636 4.661zm-18.327-2.588l.637-4.661 4.581.647-.637 4.661zm-18.326-2.588l.637-4.661 4.583.647-.637 4.661zm-18.326-2.588l.637-4.661 4.581.647-.636 4.661zM1460.4 230.3l.637-4.661 4.6.649-.637 4.661zm-18.326-2.588l.637-4.661 4.581.647-.637 4.661zm-18.326-2.588l.637-4.661 4.581.647-.637 4.661zm-18.327-2.588l.637-4.661 4.582.647-.637 4.661zm-18.326-2.588l.637-4.661 4.582.647-.637 4.661zm-18.325-2.587l.637-4.661 4.581.647-.637 4.66zm-18.326-2.588l.636-4.661 4.581.647-.637 4.661zm-18.327-2.588l.637-4.661 4.582.647-.637 4.661zM1313.8 209.6l.637-4.661 4.582.647-.637 4.661zm-18.326-2.588l.636-4.661 4.6.65-.637 4.661zm-18.327-2.588l.637-4.661 4.581.647-.637 4.661zm-18.3-2.584l.637-4.661 4.58.647-.636 4.66zm753.581 87.412l.637-4.66 4.58.647-.645 4.661zm-18.326-2.588l.636-4.66 4.581.647-.637 4.66zm-18.327-2.588l.637-4.659 4.582.647-.637 4.659zm-18.327-2.588l.637-4.659 4.583.647-.637 4.66zm-18.325-2.587l.636-4.66 4.59.648-.637 4.66zm-18.327-2.588l.637-4.66 4.581.647-.637 4.66zm-18.326-2.588l.637-4.66 4.581.647-.637 4.66zm-18.326-2.588l.636-4.66 4.582.647-.636 4.66zm-18.327-2.588l.637-4.659 4.582.647-.637 4.659zm-18.326-2.587l.637-4.66 4.581.647-.637 4.659zm-18.326-2.588l.637-4.66 4.58.647-.636 4.66zm-18.326-2.588l.636-4.66 4.582.647-.637 4.66zM1792.5 258.2l.637-4.66 4.582.647-.637 4.66zm-18.325-2.588l.637-4.66 4.58.647-.636 4.66zm-18.326-2.588l.636-4.659 4.581.646-.637 4.66zm-18.327-2.587l.637-4.66 4.581.647-.637 4.659zm-18.009-2.543l.637-4.66 4.6.649-.637 4.66zm-18.325-2.588l.636-4.66 4.581.647-.636 4.66zm-18.327-2.588l.637-4.66 4.581.647-.637 4.66zm-18.326-2.588l.637-4.66 4.582.647-.637 4.66zm-18.326-2.588l.636-4.66 4.582.647-.636 4.66zm-18.326-2.587l.637-4.66 4.581.647-.637 4.659zm-18.326-2.588l.637-4.66 4.581.647-.637 4.66zm-18.326-2.588l.637-4.66 4.6.649-.637 4.66zm-18.327-2.588l.637-4.66 4.582.647-.637 4.66zm-18.326-2.588l.637-4.66 4.582.647-.637 4.66zm-18.325-2.588l.637-4.659 4.58.646-.636 4.66zm-18.327-2.587l.637-4.66 4.581.647-.637 4.659zm-18.326-2.588l.637-4.66 4.583.647-.637 4.66zm-18.326-2.588l.637-4.66 4.581.647-.636 4.66zm-18.325-2.588l.636-4.66 4.6.649-.637 4.66zm-18.327-2.588l.637-4.659 4.581.646-.637 4.66zm-18.326-2.587l.637-4.66 4.58.647-.636 4.659zm-18.326-2.588l.636-4.66 4.582.647-.637 4.66zm-18.327-2.588l.637-4.66 4.582.647-.637 4.66zm-18.325-2.588l.637-4.66 4.581.647-.637 4.66zm-18.326-2.588l.636-4.66 4.581.647-.637 4.66zm-18.327-2.588l.637-4.659 4.582.647-.637 4.659zm-18.326-2.587l.637-4.66 4.582.647-.637 4.66zm-18.326-2.588l.636-4.66 4.6.65-.637 4.66zm-18.327-2.588l.637-4.66 4.581.647-.637 4.66zm-18.3-2.585l.637-4.66 4.58.647-.636 4.66zm753.588 87.412l.636-4.658 4.581.647-.636 4.657zm-18.326-2.588l.636-4.658 4.581.647-.637 4.658zm-18.327-2.588l.637-4.658 4.581.647-.636 4.658zm-18.327-2.588l.636-4.658 4.583.647-.636 4.658zm-18.325-2.588l.636-4.658 4.583.648-.637 4.657zm-18.327-2.588l.637-4.657 4.581.646-.637 4.658zm-18.326-2.588l.636-4.657 4.581.647-.636 4.657zm-18.326-2.587l.636-4.658 4.582.647-.637 4.658zm-18.327-2.588l.637-4.658 4.582.647-.637 4.658zm-18.326-2.588l.636-4.658 4.581.647-.636 4.658zm-18.326-2.588l.636-4.658 4.581.647-.636 4.658zm-18.327-2.588l.637-4.658 4.582.647-.637 4.658zm-18.326-2.588l.637-4.657 4.581.647-.636 4.657zm-18.325-2.587l.636-4.658 4.581.647-.636 4.658zm-18.327-2.588l.637-4.658 4.581.647-.637 4.658zm-18.317-2.587l.637-4.657 4.58.646-.636 4.658zm-18.009-2.543l.636-4.658 4.582.647-.636 4.658zm-18.325-2.588l.636-4.657 4.581.647-.636 4.657zm-18.327-2.587l.637-4.658 4.581.647-.637 4.657zm-18.326-2.588l.636-4.658 4.582.647-.636 4.658zm-18.326-2.588l.636-4.658 4.582.647-.636 4.658zm-18.326-2.588l.637-4.658 4.581.647-.637 4.658zm-18.326-2.588l.637-4.657 4.58.646-.636 4.658zm-18.326-2.587l.636-4.658 4.581.647-.636 4.657zm-18.327-2.588l.637-4.658 4.582.647-.637 4.658zm-18.326-2.588l.637-4.658 4.581.647-.636 4.658zm-18.325-2.588l.636-4.658 4.581.647-.636 4.658zm-18.327-2.588l.637-4.657 4.581.646-.637 4.658zm-18.326-2.588l.637-4.657 4.582.647-.636 4.658zm-18.326-2.587l.636-4.658 4.582.647-.636 4.658zm-18.325-2.588l.636-4.658 4.58.647-.637 4.658zm-18.327-2.588l.637-4.658 4.58.647-.636 4.658zm-18.326-2.588l.636-4.658 4.581.647-.636 4.658zm-18.326-2.588l.636-4.657 4.582.647-.637 4.657zm-18.327-2.588l.637-4.657 4.582.647-.637 4.657zm-18.325-2.587l.636-4.658 4.581.647-.636 4.658zm-18.326-2.588l.636-4.658 4.581.647-.637 4.658zm-18.327-2.588l.637-4.658 4.582.647-.637 4.658zm-18.326-2.588l.636-4.658 4.582.647-.636 4.658zm-18.326-2.588l.636-4.657 4.586.647-.636 4.658zm-18.327-2.587l.637-4.658 4.581.647-.637 4.657zm-18.32-2.587l.637-4.658 4.581.647-.637 4.657zm753.587 87.416l.637-4.661 4.581.647-.637 4.661zm-18.326-2.588l.637-4.66 4.581.646-.637 4.661zm-18.326-2.587l.637-4.661 4.582.647-.637 4.661zm-18.327-2.588l.636-4.661 4.583.647-.637 4.661zm-18.326-2.588l.637-4.661 4.583.647-.637 4.661zm-18.326-2.588l.637-4.661 4.581.647-.637 4.661zm-18.326-2.588l.637-4.661 4.58.647-.637 4.661zm-18.327-2.588l.637-4.661 4.582.647-.637 4.661zm-18.326-2.588l.637-4.66 4.582.647-.637 4.66zm-18.326-2.587l.637-4.661 4.58.647-.636 4.66zm-18.327-2.588l.637-4.661 4.581.647-.637 4.661zm-18.326-2.588l.637-4.661 4.582.647-.637 4.661zm-18.326-2.588l.637-4.661 4.581.647-.636 4.661zm-18.325-2.588l.636-4.66 4.581.646-.637 4.661zm-18.327-2.587l.637-4.661 4.581.647-.637 4.66zm-18.317-2.587l.637-4.661 4.581.647-.637 4.661zm-18.009-2.543l.637-4.661 4.581.647-.636 4.661zm-18.326-2.588l.637-4.661 4.581.647-.637 4.661zm-18.326-2.588l.637-4.661 4.581.647-.637 4.661zm-18.326-2.588l.637-4.66 4.581.647-.636 4.66zm-18.327-2.587l.637-4.661 4.582.647-.637 4.661zm-18.322-2.59l.637-4.661 4.581.647-.637 4.661zm-18.326-2.588l.637-4.661 4.58.647-.636 4.661zm-18.327-2.588l.637-4.661 4.581.647-.637 4.661zm-18.326-2.588l.637-4.661 4.582.647-.637 4.661zm-18.326-2.587l.637-4.661 4.581.647-.636 4.661zm-18.326-2.588l.637-4.661 4.581.647-.637 4.661zm-18.326-2.588l.637-4.661 4.581.647-.637 4.661zm-18.326-2.588l.637-4.661 4.583.647-.637 4.661zm-18.326-2.588l.636-4.661 4.582.647-.637 4.661zm-18.326-2.587l.637-4.661 4.58.646-.637 4.661zm-18.326-2.588l.637-4.661 4.581.647-.637 4.661zm-18.326-2.588l.636-4.661 4.581.647-.637 4.661zm-18.327-2.588l.637-4.661 4.582.647-.637 4.661zm-18.326-2.588l.637-4.661 4.582.647-.637 4.661zm-18.325-2.588l.637-4.66 4.58.646-.637 4.661zm-18.327-2.587l.637-4.661 4.581.647-.637 4.66zm-18.326-2.588l.637-4.661 4.582.647-.637 4.661zm-18.326-2.588l.637-4.661 4.581.647-.636 4.661zm-18.327-2.588l.637-4.661 4.586.648-.637 4.661zm-18.326-2.588l.637-4.661 4.581.647-.637 4.661zm-18.32-2.587l.637-4.661 4.581.647-.637 4.661zm753.587 87.417l.637-4.664 4.581.647-.637 4.664zm-18.326-2.588l.637-4.664 4.581.647-.637 4.664zm-18.326-2.588l.637-4.664 4.582.647-.638 4.664zm-18.328-2.588l.638-4.664 4.582.647-.637 4.664zm-18.325-2.587l.637-4.664 4.583.647-.637 4.664zm-18.326-2.588l.637-4.664 4.581.647-.638 4.664zm-18.327-2.588l.638-4.664 4.58.647-.637 4.664zm-18.326-2.588l.637-4.664 4.582.647-.637 4.664zm-18.326-2.588l.637-4.664 4.582.647-.637 4.664zm-18.327-2.588l.638-4.664 4.581.647-.638 4.664zm-18.326-2.587l.637-4.665 4.581.647-.637 4.664zm-18.326-2.588l.637-4.664 4.582.647-.637 4.664zm-18.327-2.588l.638-4.664 4.582.647-.638 4.664zm-18.325-2.588l.637-4.664 4.581.647-.637 4.664zm-18.326-2.588l.637-4.664 4.581.647-.637 4.664zm-18.317-2.586l.637-4.664 4.581.646-.638 4.665zm-18.01-2.543l.638-4.664 4.582.647-.638 4.664zm-18.325-2.588l.637-4.664 4.581.647-.637 4.664zm-18.326-2.588l.637-4.664 4.581.647-.637 4.664zm-18.327-2.588l.638-4.664 4.582.647-.638 4.664zm-18.326-2.588l.637-4.664 4.582.647-.637 4.664zm-18.325-2.587l.637-4.664 4.581.646-.637 4.665zm-18.327-2.588l.638-4.664 4.581.647-.638 4.664zm-18.326-2.588l.637-4.664 4.581.647-.637 4.664zm-18.326-2.588l.637-4.664 4.582.647-.637 4.664zm-18.327-2.588l.638-4.664 4.582.647-.638 4.664zm-18.325-2.587l.637-4.665 4.581.647-.637 4.664zm-18.326-2.588l.637-4.664 4.581.647-.637 4.664zm-18.327-2.588l.638-4.664 4.583.647-.638 4.664zm-18.326-2.588l.637-4.664 4.582.647-.637 4.664zm-18.325-2.588l.637-4.664 4.58.647-.637 4.664zm-18.326-2.588l.637-4.664 4.581.647-.638 4.664zm-18.327-2.587l.638-4.664 4.58.646-.637 4.664zm-18.326-2.588l.637-4.664 4.582.647-.637 4.664zM1397.3 145.4l.637-4.664 4.582.647-.638 4.664zm-18.326-2.588l.638-4.664 4.58.647-.637 4.664zm-18.326-2.588l.637-4.664 4.581.647-.637 4.664zm-18.326-2.587l.637-4.665 4.582.647-.637 4.665zM1324 135.045l.638-4.664 4.582.647-.638 4.664zm-18.326-2.588l.637-4.664 4.586.647-.637 4.664zm-18.326-2.588l.637-4.664 4.581.647-.637 4.664zm-18.32-2.587l.637-4.664 4.581.647-.638 4.664zm753.581 87.409l.637-4.659 4.581.646-.637 4.66zm-18.326-2.587l.637-4.66 4.58.647-.636 4.659zm-18.326-2.588l.636-4.66 4.582.647-.637 4.66zm-18.328-2.588l.637-4.66 4.583.647-.637 4.66zm-18.329-2.588l.637-4.66 4.589.648-.637 4.66zm-18.326-2.588l.636-4.66 4.581.647-.637 4.66zm-18.327-2.588l.637-4.659 4.581.646-.637 4.66zm-18.326-2.587l.637-4.66 4.582.647-.637 4.66zM1876 193.989l.636-4.66 4.582.647-.636 4.66zm-18.33-2.589l.637-4.66 4.581.647-.637 4.66zm-18.326-2.588l.637-4.66 4.581.647-.637 4.66zm-18.326-2.588l.637-4.66 4.581.647-.636 4.66zm-18.326-2.588l.636-4.66 4.582.647-.637 4.66zm-18.326-2.587l.637-4.66 4.581.647-.637 4.659zm-18.326-2.588l.637-4.66 4.58.647-.636 4.66zm-18.326-2.588l.636-4.66 4.581.647-.637 4.66zm-18.01-2.543l.637-4.66 4.6.649-.636 4.66zm-18.325-2.588l.637-4.66 4.581.647-.637 4.66zm-18.326-2.588l.636-4.66 4.581.647-.636 4.66zm-18.327-2.588l.637-4.659 4.582.647-.637 4.659zm-18.326-2.586l.637-4.66 4.582.647-.637 4.66zm-18.325-2.588l.636-4.66 4.581.647-.636 4.66zm-18.327-2.588l.637-4.66 4.581.647-.637 4.66zm-18.326-2.588l.637-4.66 4.6.649-.636 4.66zm-18.326-2.588l.636-4.66 4.582.647-.636 4.66zm-18.327-2.588l.637-4.659 4.582.647-.637 4.659zm-18.325-2.587l.637-4.66 4.581.647-.637 4.66zm-18.326-2.588l.637-4.66 4.58.647-.636 4.66zm-18.327-2.588l.637-4.66 4.583.647-.637 4.66zm-18.326-2.588l.637-4.66 4.582.647-.637 4.66zm-18.325-2.589l.637-4.66 4.595.649-.637 4.659zm-18.326-2.588l.636-4.66 4.581.647-.637 4.66zm-18.327-2.588l.637-4.66 4.581.647-.637 4.66zm-18.326-2.588l.637-4.66 4.581.647-.636 4.66zm-18.326-2.588l.636-4.66 4.582.647-.637 4.66zm-18.326-2.588l.637-4.659 4.581.646-.637 4.66zm-18.326-2.587l.637-4.66 4.581.647-.637 4.659zm-18.326-2.588l.636-4.66 4.582.647-.637 4.66zm-18.327-2.585l.637-4.66 4.582.647-.637 4.66zm-18.326-2.588l.637-4.66 4.6.65-.636 4.66zm-18.326-2.588l.636-4.66 4.581.647-.637 4.66zm-18.305-2.585l.637-4.659 4.581.646-.637 4.66zm753.588 87.413l.637-4.659 4.58.647-.636 4.659zm-18.326-2.588l.636-4.659 4.581.647-.637 4.659zm-18.327-2.588l.637-4.659 4.582.647-.637 4.659zm-18.327-2.588l.637-4.659 4.582.648-.636 4.658zm-18.325-2.588l.636-4.658 4.583.647-.637 4.659zm-18.327-2.587l.637-4.659 4.581.647-.637 4.658zm-18.326-2.588l.637-4.659 4.58.647-.636 4.659zm-18.326-2.588l.636-4.659 4.582.647-.636 4.659zm-18.327-2.588l.637-4.659 4.582.647-.637 4.659zm-18.326-2.588l.637-4.659 4.581.647-.637 4.659zm-18.326-2.588l.636-4.658 4.581.646-.636 4.659zm-18.326-2.587l.636-4.659 4.582.647-.637 4.659zM1805.245 165l.637-4.659 4.582.647-.637 4.659zm-18.325-2.588l.637-4.659 4.58.647-.636 4.659zm-18.326-2.588l.636-4.659 4.581.647-.637 4.659zm-18.318-2.586l.637-4.659 4.581.647-.637 4.658zm-18.009-2.543l.637-4.659 4.582.647-.637 4.659zm-18.325-2.588l.636-4.659 4.581.647-.636 4.659zm-18.326-2.588l.636-4.659 4.581.647-.637 4.659zm-18.327-2.588l.637-4.659 4.582.647-.637 4.659zm-18.326-2.588l.636-4.659 4.582.647-.636 4.659zm-18.325-2.587l.636-4.659 4.581.647-.637 4.658zm-18.327-2.588l.637-4.659 4.581.647-.637 4.659zm-18.326-2.588l.636-4.659 4.581.647-.636 4.659zm-18.326-2.588l.636-4.659 4.582.647-.637 4.659zm-18.327-2.588l.637-4.659 4.582.647-.637 4.659zm-18.325-2.588l.637-4.658 4.58.647-.636 4.658zm-18.326-2.587l.636-4.659 4.581.647-.637 4.658zm-18.327-2.588l.637-4.659 4.583.647-.637 4.659zm-18.326-2.588l.637-4.659 4.581.647-.636 4.659zm-18.325-2.588l.636-4.659 4.58.647-.636 4.659zm-18.327-2.588l.637-4.658 4.581.646-.637 4.659zm-18.326-2.587l.637-4.659 4.58.647-.636 4.658zm-18.326-2.588l.636-4.659 4.582.647-.636 4.659zm-18.327-2.588l.637-4.659 4.582.647-.637 4.659zm-18.325-2.588l.637-4.659 4.581.647-.637 4.659zm-18.326-2.588l.636-4.659 4.581.647-.636 4.659zm-18.327-2.588l.637-4.658 4.582.647-.637 4.658zm-18.326-2.587l.637-4.659 4.582.647-.637 4.659zm-18.326-2.588l.636-4.659 4.586.648-.636 4.658zm-18.327-2.588l.637-4.659 4.581.647-.637 4.659zM1274.12 90l.637-4.659 4.581.647-.637 4.659zm753.588 87.414l.637-4.659 4.58.646-.636 4.66zm-18.326-2.587l.636-4.66 4.581.647-.637 4.659zm-18.327-2.588l.637-4.66 4.582.647-.637 4.66zm-18.327-2.588l.637-4.66 4.583.647-.637 4.66zm-18.328-2.591l.636-4.66 4.583.647-.637 4.66zm-18.327-2.588l.637-4.66 4.581.647-.637 4.66zm-18.326-2.588l.637-4.659 4.581.646-.637 4.66zm-18.326-2.587l.636-4.66 4.582.647-.636 4.66zm-18.327-2.588l.637-4.66 4.582.647-.637 4.66zm-18.326-2.588l.637-4.66 4.581.647-.637 4.66zm-18.326-2.588l.637-4.66 4.58.647-.636 4.66zm-18.326-2.588l.636-4.66 4.582.647-.637 4.66zm-18.327-2.588l.637-4.66 4.582.647-.637 4.66zm-18.325-2.587l.637-4.66 4.58.647-.636 4.659zm-18.326-2.588l.636-4.66 4.581.647-.637 4.66zm-18.318-2.587l.637-4.66 4.581.647-.637 4.66zm-18.009-2.543l.637-4.66 4.582.647-.637 4.66zm-18.325-2.588l.637-4.659 4.58.646-.636 4.66zm-18.327-2.587l.637-4.66 4.581.647-.637 4.659zm-18.326-2.588l.637-4.66 4.582.647-.637 4.66zm-18.323-2.589l.637-4.66 4.581.647-.636 4.66zm-18.325-2.588l.636-4.66 4.581.647-.637 4.66zm-18.327-2.588l.637-4.66 4.581.647-.637 4.66zm-18.326-2.588l.637-4.659 4.58.646-.636 4.66zm-18.326-2.587l.636-4.66 4.582.647-.637 4.66zm-18.327-2.588l.637-4.66 4.582.647-.637 4.66zm-18.325-2.588l.637-4.66 4.58.647-.636 4.66zm-18.326-2.588l.636-4.66 4.581.647-.637 4.66zM1514.9 105l.637-4.659 4.583.647-.637 4.66zm-18.326-2.587l.637-4.66 4.582.647-.637 4.66zm-18.325-2.588l.636-4.66 4.58.647-.636 4.66zm-18.327-2.588l.637-4.66 4.581.647-.637 4.66zm-18.322-2.59l.637-4.66 4.581.647-.637 4.66zm-18.326-2.588l.636-4.66 4.582.647-.636 4.66zm-18.327-2.588l.637-4.659 4.582.647-.637 4.659zm-18.325-2.587l.637-4.66 4.581.647-.637 4.66zm-18.329-2.584l.636-4.66 4.581.647-.636 4.66zm-18.327-2.588l.637-4.66 4.582.647-.637 4.66zm-18.326-2.592l.637-4.66 4.582.647-.637 4.66zm-18.326-2.588l.637-4.66 4.586.648-.637 4.66zm-18.327-2.588l.637-4.659 4.581.646-.637 4.66zm-18.32-2.586l.637-4.66 4.581.647-.637 4.655z" class="cls-3" data-name="Union 16"/>
            </g>
        </g>
        <path id="Path_55142" d="M1667.731 201.535c-63.833-6.231-134.071-20.143-158.84 27.061s14.523 124.054-37.569 124.054-139.2 46.308-120.409 144.033 56.358 158.217 142.614 104.467 60.625-153.122 170.789-101.75 175.055 44.2 140.9-22.653-78.563-105.711-35.866-143.084 56.359-116.732-101.619-132.128z" class="cls-4" data-name="Path 55142"/>
        <rect id="Rectangle_5977" width="348.2" height="223.644" class="cls-5" data-name="Rectangle 5977" rx="7.18" transform="translate(1422.166 387.054)"/>
        <path id="Rectangle_5978" d="M0 0h333.382v208.182H0z" class="cls-6" data-name="Rectangle 5978" transform="translate(1429.007 394.779)"/>
        <path id="Path_55143" d="M1411.94 610.7h366.687a1.865 1.865 0 0 1 1.7 2c0 3.76-2.589 6.808-5.782 6.808H1417.7c-3.189-.006-5.772-3.052-5.772-6.808v-2h.009z" class="cls-5" data-name="Path 55143"/>
        <path id="Path_55144" d="M1548.871 610.7h99.1a3.972 3.972 0 0 1-3.971 3.97h-91.1a3.972 3.972 0 0 1-3.971-3.972h-.055z" class="cls-6" data-name="Path 55144"/>
        <path id="Path_55145" d="M1449.128 404.72h295.541a2.182 2.182 0 0 1 2.182 2.182 2.182 2.182 0 0 1-2.182 2.182h-295.541a2.182 2.182 0 0 1-2.182-2.182 2.182 2.182 0 0 1 2.182-2.182z" class="cls-6" data-name="Path 55145"/>
        <g id="Group_56171" data-name="Group 56171">
            <g id="Group_56168" data-name="Group 56168">
                <path id="Path_55146" d="M1692.629 234.067a14.653 14.653 0 0 0-3.034-7.54l-.687-.851-1.255-1.244c-.382-.306-.753-.611-1.157-.884a15.058 15.058 0 0 0-10.595-2.673.763.763 0 0 0-.709.753v1.32a.469.469 0 0 0 0 .175l.007.028a.491.491 0 0 0 .6.343l.676-.077a12.377 12.377 0 0 1 12.222 6.634 12.571 12.571 0 0 1 1.287 7.311.665.665 0 0 0 0 .295.567.567 0 0 0 .666.414h1.222a.775.775 0 0 0 .753-.8 15.775 15.775 0 0 0 .004-3.204z" class="cls-7" data-name="Path 55146"/>
                <path id="Path_55147" d="M1683.921 228.2a10.017 10.017 0 0 0-8.075-2.107.808.808 0 0 0-.687.786v1.353a.65.65 0 0 0 0 .2.469.469 0 0 0 .589.294l.623-.109a7.419 7.419 0 0 1 8.281 5.314 7.9 7.9 0 0 1 .132 3.568.519.519 0 0 0 0 .317v.011a.481.481 0 0 0 .576.36h1.254a.787.787 0 0 0 .8-.7 10.042 10.042 0 0 0-2.782-8.62c-.252-.223-.432-.431-.711-.667z" class="cls-7" data-name="Path 55147"/>
                <path id="Path_55148" d="M1675.88 230.815h-.12a.808.808 0 0 0-.7.862v.982c0 .753.1.84.862.753h.153a3.677 3.677 0 0 1 3.993 3.273 7.951 7.951 0 0 1 0 1.092c-.021.349.142.578.48.578h1.441a.741.741 0 0 0 .709-.7 6.106 6.106 0 0 0-1.582-4.812 6.4 6.4 0 0 0-5.236-2.028z" class="cls-7" data-name="Path 55148"/>
                <path id="Path_55149" d="M1675.137 236.217v.01a1.594 1.594 0 0 0 0 2.237 1.551 1.551 0 0 0 2.183 0 1.566 1.566 0 1 0-2.183-2.247z" class="cls-7" data-name="Path 55149"/>
            </g>
            <g id="Group_56169" data-name="Group 56169">
                <path id="Path_55150" d="M1618.9 227.132c-5.281-.72-9.45 1.353-12.45 5.761a1.276 1.276 0 0 1-.917.48 9.22 9.22 0 0 0-7.267 3.547 1.465 1.465 0 0 1-1.571.622 7.223 7.223 0 0 0-7.507 9.362 7.309 7.309 0 0 0 7.245 4.975h19.15a11.015 11.015 0 0 1 5.947-7.8.929.929 0 0 0 .589-1 15.514 15.514 0 0 1 4.866-11.523 11.806 11.806 0 0 0-8.085-4.424z" class="cls-8" data-name="Path 55150"/>
            </g>
            <g id="Group_56170" data-name="Group 56170">
                <path id="Path_55151" d="M1674.76 255.9a11.033 11.033 0 0 1-9.318 8.9 11.288 11.288 0 0 1-1.713.1h-37.22a11 11 0 0 1-5.052-20.819.928.928 0 0 0 .589-1 15.519 15.519 0 0 1 4.943-11.523 15.2 15.2 0 0 1 7.289-3.754c6.056-1.243 11.163.688 15.189 5.456.295.349.48.382.873.164a12 12 0 0 1 17.841 9.111 2.183 2.183 0 0 0 1.244 1.921 10.91 10.91 0 0 1 5.335 11.444z" class="cls-9" data-name="Path 55151"/>
            </g>
        </g>
        <circle id="Ellipse_154" cx="65.764" cy="65.764" r="65.764" class="cls-10" data-name="Ellipse 154" transform="translate(1709.152 237.524)"/>
        <path id="Path_55152" d="M1783.847 304.177c-.39-.755-.773-1.517-1.151-2.279a14.4 14.4 0 0 1-8.615-5.246 14.344 14.344 0 0 1-8.609 5.246q-.557 1.123-1.131 2.254a.631.631 0 0 0 .136.9q1.9 1.746 3.739 3.561l.078.074a.711.711 0 0 0 .949.142c1.593-.749 3.2-1.449 4.8-2.192a1.08 1.08 0 0 1 1 0q2.237.966 4.552 1.8a2.72 2.72 0 0 1 .364.168q1.841-1.821 3.752-3.574a.6.6 0 0 0 .136-.854z" class="cls-11" data-name="Path 55152"/>
        <path id="Path_55153" d="M1783.392 309.114a1.3 1.3 0 0 1 .891-.891c1.8-.65 3.583-1.3 5.4-1.912v-6.2c0-.169-.26-.41-.455-.488-1.7-.65-3.42-1.209-5.117-1.853a1.243 1.243 0 0 1-.6-.65c-.65-1.534-1.3-3.1-1.95-4.656a1.191 1.191 0 0 1-.052-.819c.39-.858.793-1.716 1.2-2.6a14.108 14.108 0 0 0-8.6 5.521 14.253 14.253 0 0 1 2.751 8.5 14.1 14.1 0 0 1-2.757 8.395 14.247 14.247 0 1 1-11.535-22.693 14.975 14.975 0 0 1 2.926.286c-.377-.793-.754-1.6-1.144-2.4a.649.649 0 0 1 .123-.858 170.17 170.17 0 0 0 3.752-3.752.963.963 0 0 1-.384-.533c-.578-1.69-1.209-3.374-1.781-5.072a.612.612 0 0 0-.7-.481h-5.526a.561.561 0 0 0-.651.5c-.578 1.7-1.2 3.381-1.788 5.072a.988.988 0 0 1-.7.65c-1.567.611-3.108 1.3-4.662 1.951a1.161 1.161 0 0 1-.825 0 168.84 168.84 0 0 1-4.923-2.328.65.65 0 0 0-.9.13c-1.3 1.3-2.562 2.6-3.862 3.862a.65.65 0 0 0-.137.9c.774 1.594 1.515 3.206 2.3 4.8a1.086 1.086 0 0 1 0 1.073c-.65 1.47-1.3 2.965-1.859 4.474a1.107 1.107 0 0 1-.748.78c-1.84.65-3.667 1.3-5.52 1.951v6.014a.65.65 0 0 0 .539.722c1.7.579 3.388 1.177 5.066 1.814a1.261 1.261 0 0 1 .6.65c.65 1.535 1.3 3.1 1.951 4.636a.947.947 0 0 1 0 .9c-.793 1.606-1.535 3.251-2.328 4.851a.65.65 0 0 0 .1.914.5.5 0 0 0 .047.035q1.951 1.874 3.81 3.817a.7.7 0 0 0 .956.15c1.593-.787 3.2-1.522 4.792-2.3a1.053 1.053 0 0 1 1.021 0c1.489.65 3 1.3 4.552 1.892a1.061 1.061 0 0 1 .748.7c.578 1.7 1.209 3.381 1.781 5.078a.652.652 0 0 0 .709.482h5.52a.559.559 0 0 0 .651-.508c.578-1.69 1.2-3.374 1.788-5.071a.9.9 0 0 1 .377-.508 1.516 1.516 0 0 1 .325-.162c1.561-.6 3.1-1.3 4.662-1.912a1.172 1.172 0 0 1 .813 0h.039q2.457 1.131 4.89 2.322a.651.651 0 0 0 .911-.123l.005-.008.1-.1q1.839-1.911 3.751-3.751a.649.649 0 0 0 .143-.9c-.39-.793-.773-1.593-1.151-2.393s-.741-1.561-1.124-2.328a1.222 1.222 0 0 1 0-1.2 65.578 65.578 0 0 0 1.789-4.372z" class="cls-5" data-name="Path 55153"/>
        <path id="Path_55154" d="M1804.583 313.47a1.222 1.222 0 0 0 0 1.2c.774 1.561 1.5 3.154 2.276 4.721a.651.651 0 0 1-.143.9q-1.951 1.891-3.863 3.855a.649.649 0 0 1-.9.137c-1.638-.8-3.251-1.58-4.929-2.334a1.189 1.189 0 0 0-.819 0c-1.554.617-3.095 1.3-4.662 1.911a1.016 1.016 0 0 0-.7.651c-.585 1.7-1.209 3.381-1.788 5.071-.13.378-.273.514-.65.508h-5.534a.612.612 0 0 1-.7-.482c-.572-1.7-1.2-3.381-1.782-5.078a.978.978 0 0 0-.384-.527q1.841-1.911 3.752-3.751a.649.649 0 0 0 .143-.9c-.39-.793-.773-1.593-1.151-2.393a14.524 14.524 0 0 0 2.881.286 14.247 14.247 0 1 0 .54-28.488h-.6a14.448 14.448 0 0 0-2.822.279 14.108 14.108 0 0 0-8.6 5.521 14.346 14.346 0 0 0-2.757 8.518 14.065 14.065 0 0 0 2.751 8.375 14.251 14.251 0 0 1-8.674 5.546c.4-.832.787-1.658 1.2-2.484a.947.947 0 0 0 0-.9c-.65-1.534-1.3-3.1-1.95-4.636a1.255 1.255 0 0 0-.6-.65c-1.677-.65-3.368-1.235-5.065-1.814a.65.65 0 0 1-.539-.722v-6.014c1.853-.651 3.673-1.3 5.52-1.951a1.12 1.12 0 0 0 .748-.78c.572-1.509 1.2-3 1.859-4.474a1.1 1.1 0 0 0 0-1.073c-.39-.8-.767-1.593-1.151-2.393-.377-.793-.754-1.6-1.144-2.4a.651.651 0 0 1 .112-.913h.005a170.17 170.17 0 0 0 3.752-3.752 2.612 2.612 0 0 0 .364.169c1.509.586 3 1.2 4.474 1.86a1.17 1.17 0 0 0 1.066.052 1.128 1.128 0 0 0 .813 0c1.567-.65 3.108-1.3 4.668-1.951a1.433 1.433 0 0 0 .325-.156.916.916 0 0 0 .378-.513c.585-1.691 1.209-3.375 1.788-5.072.123-.371.273-.514.65-.5h5.52a.65.65 0 0 1 .709.481c.572 1.7 1.2 3.382 1.782 5.072a1.03 1.03 0 0 0 .826.728c1.508.586 3 1.2 4.473 1.86a1.176 1.176 0 0 0 1.144 0c1.568-.78 3.161-1.508 4.721-2.282a.7.7 0 0 1 .962.162 137.353 137.353 0 0 0 3.759 3.759.753.753 0 0 1 .167 1.053l-.005.006q-1.2 2.419-2.308 4.864a1.192 1.192 0 0 0 .046.819c.65 1.561 1.3 3.122 1.95 4.656a1.254 1.254 0 0 0 .611.65c1.7.651 3.414 1.223 5.111 1.853.189.078.449.319.455.488.033 2.061 0 4.116 0 6.2-1.82.651-3.6 1.3-5.4 1.912a1.3 1.3 0 0 0-.9.891 60.11 60.11 0 0 1-1.781 4.369z" class="cls-11" data-name="Path 55154"/>
        <g id="Group_56172" data-name="Group 56172">
            <rect id="Rectangle_5979" width="56.991" height="8.762" class="cls-5" data-name="Rectangle 5979" rx="2.182" transform="translate(1542.99 318.512)"/>
            <path id="Path_55155" d="M1545.183 330.84h68.405a2.182 2.182 0 0 1 2.182 2.183 2.182 2.182 0 0 1-2.182 2.182h-68.405a2.182 2.182 0 0 1-2.182-2.182 2.182 2.182 0 0 1 2.182-2.183z" class="cls-5" data-name="Path 55155"/>
            <path id="Path_55156" d="M1545.183 339.264h28.2a2.182 2.182 0 0 1 2.182 2.182 2.182 2.182 0 0 1-2.182 2.183h-28.2a2.182 2.182 0 0 1-2.182-2.183 2.182 2.182 0 0 1 2.182-2.182z" class="cls-5" data-name="Path 55156"/>
            <path id="Path_55157" d="M1545.183 347.133h49.1a2.182 2.182 0 0 1 2.182 2.183 2.182 2.182 0 0 1-2.182 2.182h-49.1a2.182 2.182 0 0 1-2.182-2.182 2.182 2.182 0 0 1 2.182-2.183z" class="cls-5" data-name="Path 55157"/>
            <path id="Path_55158" d="M1545.183 355.514h111.778a2.182 2.182 0 0 1 2.183 2.182 2.182 2.182 0 0 1-2.183 2.182h-111.778A2.182 2.182 0 0 1 1543 357.7a2.182 2.182 0 0 1 2.183-2.186z" class="cls-5" data-name="Path 55158"/>
            <path id="Path_55159" d="M1545.183 363.926h67.565a2.182 2.182 0 0 1 2.182 2.183 2.182 2.182 0 0 1-2.182 2.182h-67.565a2.182 2.182 0 0 1-2.182-2.182 2.182 2.182 0 0 1 2.182-2.183z" class="cls-5" data-name="Path 55159"/>
        </g>
        <path id="Rectangle_5980" d="M0 0h142.571v54.907H0z" class="cls-10" data-name="Rectangle 5980" transform="translate(1363.679 312.995)"/>
        <path id="Path_55160" d="M1477.008 319.389l.032 2.182 9.153-.139-22.964 22.015-17.493-11.039-18.556 20.006-21.32-21.506-36.581 26.576a1.091 1.091 0 1 0 1.283 1.764l35.065-25.474 21.606 21.792 18.872-20.345 17.4 10.981 24.2-23.2-.529 9.14 2.182.131.753-13.083z" class="cls-11" data-name="Path 55160"/>
        <path id="Path_55161" d="M1481.361 330.606l-1.364 1.7 7.158 5.718-28.19 2.12-14.383 3.566-28.627-4.413-14.14 10.528-31.42-15.174a1.091 1.091 0 0 0-.949 1.965l32.612 15.75 14.468-10.773 27.941 4.307.217.033 14.537-3.62 28.1-2.113-6.224 6.716 1.6 1.484 8.9-9.613z" class="cls-5" data-name="Path 55161"/>
        <g id="Group_56175" data-name="Group 56175">
            <g id="Group_56173" data-name="Group 56173">
                <path id="Rectangle_5981" d="M0 0h119.667v73.762H0z" class="cls-11" data-name="Rectangle 5981" transform="translate(1431.332 210.036)"/>
            </g>
            <g id="Group_56174" data-name="Group 56174">
                <path id="Path_55162" d="M1477.808 239.7l-14.237 6.076 14.237 5.988-1.863 4.3-17.075-7.629v-5.278l17.075-7.672z" class="cls-12" data-name="Path 55162"/>
                <path id="Path_55163" d="M1498.79 225.645l-10.334 39.694-4.923-1.153 10.379-39.65z" class="cls-12" data-name="Path 55163"/>
                <path id="Path_55164" d="M1523.5 243.163v5.278l-17.076 7.629-1.862-4.3 14.193-5.988-14.193-6.076 1.862-4.213z" class="cls-12" data-name="Path 55164"/>
            </g>
        </g>
        <g id="Group_56177" data-name="Group 56177">
            <path id="Path_55165" d="M1507.713 508.513c1.143-.41 2.269-.821 3.4-1.208a.7.7 0 0 0 .463-.487c.352-.932.739-1.853 1.173-2.756a.69.69 0 0 0 0-.668c-.481-.98-.938-1.971-1.419-2.933a.4.4 0 0 1 .088-.551c.8-.78 1.6-1.578 2.381-2.381a.393.393 0 0 1 .549-.084c1.009.487 2.018.973 3.038 1.437a.734.734 0 0 0 .51 0c.962-.387 1.906-.81 2.874-1.173a.623.623 0 0 0 .428-.417c.364-1.044.751-2.082 1.109-3.125.076-.229.17-.317.416-.317h3.407a.375.375 0 0 1 .434.293c.352 1.05.745 2.088 1.1 3.132a.656.656 0 0 0 .457.434q1.4.539 2.762 1.173a.718.718 0 0 0 .7 0c.968-.481 1.947-.927 2.932-1.408a.435.435 0 0 1 .587.1q1.137 1.173 2.346 2.346a.47.47 0 0 1 .094.657q-.74 1.489-1.42 3a.69.69 0 0 0 .03.5c.381.961.78 1.923 1.173 2.873a.765.765 0 0 0 .375.393c1.044.4 2.1.757 3.155 1.144.117.047.276.2.282.305v3.823c-1.121.4-2.223.8-3.332 1.173a.794.794 0 0 0-.551.552 32.3 32.3 0 0 1-1.114 2.686.754.754 0 0 0 0 .739c.475.967.927 1.947 1.4 2.932a.4.4 0 0 1-.088.551c-.81.78-1.6 1.578-2.381 2.381a.4.4 0 0 1-.564.1l-.023-.017a123.676 123.676 0 0 0-3.038-1.437.717.717 0 0 0-.5 0c-.962.387-1.906.81-2.874 1.173a.634.634 0 0 0-.434.411c-.357 1.044-.744 2.082-1.1 3.132a.37.37 0 0 1-.42.311h-3.4a.375.375 0 0 1-.434-.3c-.352-1.05-.745-2.082-1.1-3.131a.643.643 0 0 0-.458-.429 49.125 49.125 0 0 1-2.8-1.172.644.644 0 0 0-.628 0c-.979.48-1.976.932-2.932 1.419a.423.423 0 0 1-.587-.094l-2.345-2.346a.417.417 0 0 1-.092-.582c.486-1 .95-2 1.431-3a.591.591 0 0 0 0-.551c-.417-.95-.8-1.918-1.214-2.868a.791.791 0 0 0-.37-.4 99.23 99.23 0 0 0-3.126-1.114c-.246-.082-.34-.182-.334-.446-.016-1.276-.016-2.526-.016-3.775zm16.714 11.665a9.653 9.653 0 1 0-9.659-9.647v.047a9.635 9.635 0 0 0 9.67 9.6h-.011z" class="cls-5" data-name="Path 55165"/>
            <path id="Path_55166" d="M1649.4 508.53c1.138-.41 2.264-.821 3.4-1.208a.686.686 0 0 0 .457-.486q.54-1.4 1.173-2.757a.68.68 0 0 0 0-.668c-.481-.98-.938-1.971-1.419-2.933a.4.4 0 0 1 .082-.551c.809-.78 1.6-1.577 2.381-2.381a.405.405 0 0 1 .564-.1l.022.017c1.009.487 2.018.973 3.038 1.437a.72.72 0 0 0 .505 0c.961-.387 1.911-.81 2.879-1.173a.635.635 0 0 0 .428-.416c.364-1.044.745-2.082 1.1-3.126a.375.375 0 0 1 .422-.317h3.407a.369.369 0 0 1 .428.293c.358 1.05.745 2.088 1.1 3.132a.653.653 0 0 0 .463.434c.927.358 1.853.739 2.757 1.173a.727.727 0 0 0 .709 0c.962-.481 1.947-.927 2.933-1.408a.428.428 0 0 1 .586.1 79.835 79.835 0 0 0 2.346 2.346.475.475 0 0 1 .1.657q-.738 1.489-1.425 3a.755.755 0 0 0 0 .5c.387.962.786 1.923 1.2 2.873a.754.754 0 0 0 .369.393c1.05.4 2.111.757 3.161 1.144.117.047.276.2.276.305v3.824c-1.115.4-2.217.8-3.331 1.173a.786.786 0 0 0-.546.551 33.409 33.409 0 0 1-1.12 2.686.759.759 0 0 0 0 .739c.481.967.933 1.947 1.408 2.932a.4.4 0 0 1-.094.551c-.8.78-1.595 1.578-2.381 2.381a.4.4 0 0 1-.551.082 121.737 121.737 0 0 0-3.038-1.436.709.709 0 0 0-.505 0c-.961.387-1.912.809-2.879 1.172a.628.628 0 0 0-.428.411c-.364 1.044-.745 2.082-1.1 3.132a.37.37 0 0 1-.42.311h-3.409a.368.368 0 0 1-.428-.3c-.358-1.049-.745-2.082-1.1-3.131a.643.643 0 0 0-.463-.428 48.716 48.716 0 0 1-2.792-1.173.653.653 0 0 0-.633 0c-.98.481-1.971.932-2.933 1.419a.428.428 0 0 1-.586-.094l-2.346-2.346a.421.421 0 0 1-.088-.586c.493-1 .95-2 1.437-3a.584.584 0 0 0 0-.551c-.422-.95-.8-1.918-1.214-2.868a.8.8 0 0 0-.375-.4 94.107 94.107 0 0 0-3.126-1.114.4.4 0 0 1-.334-.446c-.067-1.272-.067-2.521-.067-3.771zm16.714 11.665a9.653 9.653 0 1 0-9.659-9.647v.047a9.63 9.63 0 0 0 9.659 9.6z" class="cls-5" data-name="Path 55166"/>
            <g id="Group_56176" data-name="Group 56176">
                <path id="Path_55167" d="M1633.737 471.775c0 9.051.044 17.339-.059 25.625a4.835 4.835 0 0 1-1.308 2.941c-20.13 21.206-40.432 42.251-60.445 63.566-19.78 21.067-57.99 26.494-84.857 9.522-19.461-12.293-32.215-29.2-35.184-52.321-4.218-32.85 13.488-62.713 44.262-75.447 29.433-12.179 56.14-5.7 78.929 17.237 1.74 1.752 3.31 3.673 5.313 5.91H1553.9v26.836c-2.032-1.878-3.494-3.235-4.963-4.586-5.581-5.133-11.861-9-19.341-10.712-19.814-4.528-37.348 8.8-38.1 28.979-.583 15.546 6.6 27.264 19.631 32.005a34.009 34.009 0 0 0 39.116-11.048c2.933-3.736 6.4-7.057 9.686-10.508q21.987-23.089 44.066-46.091a6.617 6.617 0 0 1 4.2-1.824c8.268-.171 16.548-.084 25.542-.084zm-7.7 7.624c-5.123 0-9.687-.179-14.224.1a7.777 7.777 0 0 0-4.75 2.039q-24.4 25.268-48.559 50.757c-2.158 2.269-4.067 4.776-6.636 7.819h13.51v19.157c1-.858 1.406-1.147 1.742-1.5q28.86-30.243 57.684-60.519a4.04 4.04 0 0 0 1.179-2.372c.105-4.951.051-9.901.051-15.48zm-132.209 76.408c0-5.755.034-11.008-.044-16.26a3.223 3.223 0 0 0-.975-1.856c-9.936-10.578-12.579-33.735-3.233-48.385a17.233 17.233 0 0 0 .948-2.2h-15.978v-16.765c-1.066 1.155-1.573 1.658-2.029 2.2-19.33 23.111-17.715 60.8 3.535 82.158a3.1 3.1 0 0 0 1.758 1.056c5.146.088 10.296.052 16.015.052zm-14.706-73.083c5.259 0 9.908.055 14.554-.052a4.562 4.562 0 0 0 2.43-1.114c13.877-10.952 31.652-12.491 47.124-4.043.866.473 1.757.9 3.081 1.579v-18.069h14.914a11.752 11.752 0 0 0-.955-1.023c-28.567-22.222-61.282-11.9-80.053 4.534a3.2 3.2 0 0 0-1.048 2.07c-.091 5.154-.05 10.311-.05 16.118zm81.648 61.769c-4.07 0-7.5-.206-10.889.072a18.118 18.118 0 0 0-6.668 1.7 42.24 42.24 0 0 1-21.271 4.7 41.543 41.543 0 0 1-23.689-7.939v17.289h-15.4l-.347 1.015c4.073 2.551 7.949 5.508 12.251 7.585 21.868 10.554 43.183 9.44 63.7-3.723.993-.637 2.17-1.931 2.208-2.957.212-5.773.102-11.555.102-17.742z" class="cls-11" data-name="Path 55167"/>
                <path id="Path_55168" d="M1637.177 493.686v-24.645h-27.406c.068-.451.012-.807.164-.986 12.078-14.259 26.646-24.836 45.453-27.563 20.679-3 39.341 2.824 55.823 15.6a3.391 3.391 0 0 1 1.242 2.276c.09 7.963.055 15.928.055 24.262-.685.057-1.782.185-2.883.234-4.554.2-9.108.4-13.664.563-6.365.228-12.491.257-18.842-1.974-12.2-4.285-23.443-.991-33.407 6.975-1.997 1.595-3.983 3.204-6.535 5.258z" class="cls-11" data-name="Path 55168"/>
                <path id="Path_55169" d="M1618.841 534.969c8.325 0 16.175-.037 24.024.056a4.744 4.744 0 0 1 2.4 1.23c13.814 10.558 32.056 9.556 44.833-2.483a6.513 6.513 0 0 1 1.026-.526v27.159h27.016a8.08 8.08 0 0 1-.7 1.3c-28.06 28.807-68.819 26.546-92.737 8.464-4.183-3.162-6.508-6.42-6.017-12.1.643-7.469.155-15.048.155-23.1z" class="cls-11" data-name="Path 55169"/>
                <path id="Path_55170" d="M1695.615 555.854c0-10.474-.215-20.415.112-30.338.12-3.645 1.932-7.211 2.261-10.877.863-9.618-1.085-18.549-8.29-26.4l27.893-1.207v-25.688c2.855 3.419 5.436 6.173 7.639 9.2 17.783 24.448 17.408 59.233-.753 83.115a4.786 4.786 0 0 1-4.338 2.247c-7.97-.129-15.939-.052-24.524-.052z" class="cls-11" data-name="Path 55170"/>
                <path id="Path_55171" d="M1566.782 508.582c-2.6-2.676-5.5-5.614-8.329-8.626a3.547 3.547 0 0 1-1.021-2.112c-.07-8.569-.045-17.138-.045-26.08 6.957 0 13.675.343 20.339-.11 5.288-.359 9.4.858 12.6 5.212a29.516 29.516 0 0 0 4.2 3.982z" class="cls-11" data-name="Path 55171"/>
                <path id="Path_55172" d="M1638.721 530.532h-24.366v28.64l-.854.267-15.76-17.667 27.067-28.282 14.27 16.154z" class="cls-11" data-name="Path 55172"/>
            </g>
        </g>
        <path id="Path_55173" d="M1314.68 619.795h533.4a2.27 2.27 0 0 1 2.467 2c0 3.76-3.766 6.808-8.41 6.808h-519.074c-4.639-.006-8.4-3.052-8.4-6.808v-2h.013z" class="cls-13" data-name="Path 55173"/>
        <g id="Group_56184" data-name="Group 56184">
            <path id="Path_55174" d="M1792.381 487.433s-.693-3.308-5.518-3.292c-6.7.023-7.237 9.541-6.1 15.461 1.5 7.849 4.34 11.055-1.075 31.412 0 0 11.984-25.163 10.1-32.647-1.388-5.49 2.593-10.934 2.593-10.934z" class="cls-14" data-name="Path 55174"/>
            <path id="Path_55175" d="M1830.055 550.89s2.851-1.44 2.821-3a13.333 13.333 0 0 1 .946-4.32c.347-.871.469-3.982 1.515-3.509s.03 5.148 0 6.176 3.375-1.757 4.383-1.739 5.123 6.356 2.576 7.975-6.183 1.735-6.7 1.922c-.532.194-2.452.916-2.452.916z" class="cls-15" data-name="Path 55175"/>
            <path id="Path_55176" d="M1839.04 544.726s8.119-4.4 8.9-4.208.985.679.245 1.124-7.726 4.5-7.726 4.5 10.46-3.476 11.131-3.465c.391.005.84.921.465 1.2s-10.549 4.357-10.549 4.357 9.774-3.228 10.334-3.04a.769.769 0 0 1 0 1.4c-.709.294-9.61 3.837-9.61 3.837s7.258-1.87 7.651-1.419c.24.278.663 1.053-1.223 1.472s-6.24 1.91-6.24 1.91z" class="cls-15" data-name="Path 55176"/>
            <path id="Path_55177" d="M1805.5 557.029s13.291-2.948 15.853-3.726c2.944-.9 8.706-2.413 8.706-2.413l3.093 4.42s-17.15 8.795-20.313 10.044c-2.946 1.167-10.942 4.048-10.942 4.048z" class="cls-15" data-name="Path 55177"/>
            <path id="Path_55178" d="M1863.092 612.132s3.883 16.548 4.011 19.787 11.333 46.367 12.145 48.509-4.2 3.968-5.628 2.556-12.526-25.466-15.065-29.931-8.752-14.844-9.1-25.221 13.637-15.7 13.637-15.7z" class="cls-16" data-name="Path 55178"/>
            <path id="Path_55179" d="M1865.911 617.131s-6.041 15.886-7.749 18.642-16.543 44.774-17.067 47.005-5.673.747-6.068-1.223 3.835-27.926 4.23-33.046 1.049-17.2 6.563-25.995 20.091-5.383 20.091-5.383z" class="cls-16" data-name="Path 55179"/>
            <g id="Group_56178" data-name="Group 56178">
                <path id="Path_55180" d="M1834.768 681.616s6.734-1.558 6.94-1.734.272-.572 1.17-.162 1.207 1.821 2.084 2.3 6.273 2.361 9.2 3.987c1.059.589 5.561 2.569 6.149 4.064s.274 3.68-7.588 2.767-16.542-.235-18.226-1.184-.297-7.781.271-10.038z" class="cls-17" data-name="Path 55180"/>
            </g>
            <g id="Group_56179" data-name="Group 56179">
                <path id="Path_55181" d="M1873.273 683.148s6.244-2.965 6.407-3.179.143-.62 1.106-.409 1.57 1.517 2.53 1.8 6.635.96 9.844 1.922c1.161.345 5.982 1.314 6.878 2.647s1.056 3.536-6.818 4.331-16.21 3.319-18.057 2.756-1.957-7.539-1.89-9.868z" class="cls-17" data-name="Path 55181"/>
            </g>
            <path id="Path_55182" d="M1809.127 589s52.093 11.443 56.784 28.135a32.32 32.32 0 0 0-18.53 3.751s-24.293-1.7-48.6-1.134c-3.031.071-24.269-6.037-20.977-23.915 3.335-18.12 31.323-6.837 31.323-6.837z" class="cls-18" data-name="Path 55182"/>
            <g id="Group_56180" data-name="Group 56180">
                <path id="Path_55183" d="M1800.28 516.571a11.734 11.734 0 0 0-2.044 2.836 27.935 27.935 0 0 0-1.481 3.223 40.963 40.963 0 0 0-1.394 4.24s-12.318-6.508-9.314-8.965 4.318-12.082 4.318-12.082 12.409 8.361 9.915 10.748z" class="cls-15" data-name="Path 55183"/>
            </g>
            <g id="Group_56181" data-name="Group 56181">
                <path id="Path_55184" d="M1814.7 493.364s2.544 3.851-1.3 11.833c0 0-1.122 6.9-.423 8.347s-3.2.834-3.826 1.562-2.474 4.452-5.767 6.091-14.329-9.136-13.838-13.349-3.719-24.031 10.791-20.845 14.363 6.361 14.363 6.361z" class="cls-15" data-name="Path 55184"/>
            </g>
            <g id="Group_56182" data-name="Group 56182">
                <path id="Path_55185" d="M1814.6 502.274s6.465-16.994-11.313-18.589-14.371 19.894-13.826 26.742c0 0 2.413-9.726 10.642-7.772s10.437.538 14.497-.381z" class="cls-14" data-name="Path 55185"/>
            </g>
            <g id="Group_56183" data-name="Group 56183">
                <path id="Path_55186" d="M1799.461 499.839c-.523-2.055-4.28-2.086-4.63.725s1.693 6.279 2.987 5.232 2.414-2.942 1.643-5.957z" class="cls-15" data-name="Path 55186"/>
            </g>
            <path id="Path_55187" d="M1798.236 519.407a27.935 27.935 0 0 0-1.481 3.223c-3.805-3.2-5.371-10.174-5.371-10.174a34.782 34.782 0 0 0 6.852 6.951z" class="cls-16" data-name="Path 55187"/>
            <path id="Path_55188" d="M1797.173 524.79s10.86 12.425 12.238 13.41 5.515 9.847 0 15.163c0 0-.5 5.661-1.486 7.826s-.285 24.473 1.289 27.033-20.778 11.056-31.411 7.611c0 0 3.017-14.306 4-21.6s-3.411-28.514-3.509-34.224 3.861-20.216 7.74-21.8 11.139 6.581 11.139 6.581z" class="cls-17" data-name="Path 55188"/>
            <path id="Rectangle_5982" d="M0 0h41.537v2.559H0z" class="cls-19" data-name="Rectangle 5982" transform="rotate(-161.558 975.523 151.395)"/>
            <path id="Rectangle_5983" d="M0 0h41.537v2.56H0z" class="cls-19" data-name="Rectangle 5983" transform="rotate(143.046 846.459 604.46)"/>
            <path id="Path_55189" d="M1843.129 597.757c.329-.854.393-2.233-2.166-4.137s-8.138-7.154-10.24-7.549-3.678.524-4.53.393-1.969 4.988-1.969 4.988z" class="cls-15" data-name="Path 55189"/>
            <path id="Path_55190" d="M1826.193 586.464s-11.177-4.594-13.082-5.515-11.092-4.135-11.88-4.528-4.924-21.926-5.253-27.508-.656-17.4-6.958-16.871-7.812 4.661-7.025 12.8 5.449 37.287 7.417 38.274 25.3 5.631 36.456 8.916.325-5.568.325-5.568z" class="cls-15" data-name="Path 55190"/>
            <path id="Path_55191" d="M1791.729 488.31s-2.665 4.8-2.391 8.414c0 0-2.448-5.469 2.391-8.414z" class="cls-20" data-name="Path 55191"/>
        </g>
        <g id="Group_56187" data-name="Group 56187">
            <path id="Path_55192" d="M1408.087 619.6H1304.02s-3.285-8.763-1.089-16.429 27.38-13.146 27.38-13.146l51.484 1.1s26.292 3.284 28.478 10.95-2.186 17.525-2.186 17.525z" class="cls-17" data-name="Path 55192"/>
            <path id="Path_55193" d="M1335.79 595.51c1.1 3.284-3.284 8.763-3.284 8.763s-15.341-7.666-17.527-10.959 0-32.859 0-32.859l14.217 2.2s-4.356 20.812-2.187 24.1 7.684 5.47 8.781 8.755z" class="cls-21" data-name="Path 55193"/>
            <path id="Path_55194" d="M1377.109 595.51c-1.1 3.284 3.284 8.763 3.284 8.763s15.341-7.666 17.527-10.959 0-32.859 0-32.859l-15.062 2.2s3.842 21.9 3.014 24.1-7.631 5.47-8.763 8.755z" class="cls-21" data-name="Path 55194"/>
            <path id="Path_55195" d="M1367.117 523.6s6.612-14.06 7.143-23.843c.871-9.391-11.656-15.184-16.09-21.047-2.187 3.232-6.168 4.513-10.227 7.213-2.03 1.586-3.311 7.222-3.311 7.222s2.109-7.6 1.987-7.37c-4.5 4.661-12.327 7.745-10.82 18.721 1.045 7.222 7.291 17.972 7.291 17.972z" class="cls-22" data-name="Path 55195"/>
            <path id="Path_55196" d="M1357.49 501.225c-12.779-8.711-19.165 6.02-19.165 6.02 0-12.632 8.119-22.937 18.05-22.937 10 0 14.357 10.384 14.357 23.015.068 0-3.763-11.629-13.242-6.098z" class="cls-22" data-name="Path 55196"/>
            <path id="Path_55197" d="M1398.574 560.507a19.55 19.55 0 0 1-8.372 4.356 15.928 15.928 0 0 1-7.8-.088l-1.141 33.566s-10.82 12.971-24.88 14.06-25.96-11.865-25.96-11.865l-1.464-36.98a19.52 19.52 0 0 1-7.962 0c-3.7-.958-6.8-1.986-6.8-1.986s-1.081-20.559 6.49-25.969 34.645-5.375 34.645-5.375 31.361 0 36.78 7.57 6.464 22.711 6.464 22.711z" class="cls-23" data-name="Path 55197"/>
            <path id="Path_55198" d="M1365.461 534.547s-5.836 6.577-11.246 6.577-11.656-6.577-11.656-6.577l1.925-8.659h19.47z" class="cls-21" data-name="Path 55198"/>
            <path id="Path_55199" d="M1366.115 524.807c-1.211 2.108-7.161 8.712-11.221 8.651s-10.27-5.34-11.49-8.651c-.619-1.664-3.328-8.267-3.441-14.678s3.363-12.127 5.784-13.634c1.507-.941 5.227.47 9.034.923 2.3.279 4.661-.487 6.664-.374 6.186.113 8.189 7.692 8.137 13.337a37.741 37.741 0 0 1-3.467 14.426z" class="cls-21" data-name="Path 55199"/>
            <path id="Path_55200" d="M1340.677 516.54a3.444 3.444 0 0 1-1.394 0c-1.428-.444-1.811-6.176-1.08-7.1s2.474 0 2.474 0z" class="cls-21" data-name="Path 55200"/>
            <path id="Path_55201" d="M1370.27 515.442a2.149 2.149 0 0 1-2.1.044l-.07-6.42s1.969-1.69 3.171-.053.036 5.776-1.001 6.429z" class="cls-21" data-name="Path 55201"/>
            <path id="Path_55202" d="M1352.83 559.836c-.375 0-26.091.871-24.288-21.578.453-2.4 7.44-4.887 11.883-5.567l-.776-2.779 4.356-.871-.827 5.114 7.422 3.946a3.485 3.485 0 0 1 1.82 2.918c.18 5.131.593 18.268.41 18.817z" class="cls-23" data-name="Path 55202"/>
            <path id="Path_55203" d="M1356.663 559.836c.305 0 23.46 1.577 24.209-21.509 0-3.231-7.44-4.887-11.874-5.557v-2.8s-4.512-.975-4.591-.871c-.148.749 1.054 5.227 1.054 5.227l-7.3 4.242a2.259 2.259 0 0 0-1.141 1.856c-.07 4.481-.296 19.029-.357 19.412z" class="cls-23" data-name="Path 55203"/>
            <path id="Path_55204" d="M1376.15 672.09l.409 6.9 6.795 4.234 9.3-1.986-2.526-11.3z" class="cls-24" data-name="Path 55204"/>
            <g id="Group_56185" data-name="Group 56185">
                <path id="Path_55205" d="M1412.059 693.346c.174-.872-1.185-1.568-2.439-2a9.78 9.78 0 0 1-3.833-2.526l-10.123-10.742a2.988 2.988 0 0 0-3.528-.618l-5.61 2.892a5.169 5.169 0 0 1-3.38.462l-1.29-.27a5.23 5.23 0 0 1-2.822-1.638l-2.709-3.066a1.133 1.133 0 0 0-1.952.514l-1.829 8.85z" class="cls-17" data-name="Path 55205"/>
                <path id="Path_55206" d="M1376.1 689.19l32.773 6.786a2.56 2.56 0 0 0 3.041-1.967l.008-.036a.636.636 0 0 0-.488-.756h-.009l-38.417-7.962a.3.3 0 0 0-.345.238.291.291 0 0 0 .005.128l.113.435a4.356 4.356 0 0 0 3.319 3.134z" class="cls-17" data-name="Path 55206"/>
            </g>
            <path id="Path_55207" d="M1331.809 683.171c-2.8 1.864-15.89 3.737-18.695.932s7.483-9.348 7.483-9.348h14.017s-.026 6.545-2.805 8.416z" class="cls-24" data-name="Path 55207"/>
            <path id="Path_55208" d="M1340.172 613.037c-3.284-1.1-7.666-8.764-7.666-8.764s1.089-8.763 2.187-9.861 13.145-1.1 14.243 0-.279 2.108-.688 2.7-7.571 3.023-7.632 5.428c-.444 8.3 8.39 2.23 10.794 4.573 1.629 1.587-1.377 8.111-11.238 5.924z" class="cls-25" data-name="Path 55208"/>
            <path id="Path_55209" d="M1372.753 613.037c3.284-1.1 7.666-8.764 7.666-8.764s-1.089-8.763-2.187-9.861-13.145-1.1-14.243 0 .279 2.108.688 2.7 7.579 3.023 7.632 5.428c.444 8.3-8.39 2.23-10.794 4.573-1.615 1.587 1.394 8.111 11.238 5.924z" class="cls-25" data-name="Path 55209"/>
            <path id="Path_55210" d="M1336.888 676.41c-2.195 5.471-19.723 0-20.812-2.195-2.2-12.048-12.056-54.61-12.056-54.61h23.006s12.048 51.326 9.862 56.805z" class="cls-17" data-name="Path 55210"/>
            <path id="Path_55211" d="M1394.941 674.25c-2.718 4.077-20.812 6.577-20.812 1.1s10.951-55.708 10.951-55.708h23.007s-8.764 48.005-13.146 54.608z" class="cls-17" data-name="Path 55211"/>
            <rect id="Rectangle_5984" width="62.409" height="47.599" class="cls-19" data-name="Rectangle 5984" rx="4.164" transform="translate(1320.772 571.98)"/>
            <circle id="Ellipse_155" cx="4.124" cy="4.124" r="4.124" class="cls-6" data-name="Ellipse 155" transform="translate(1347.852 591.656)"/>
            <g id="Group_56186" data-name="Group 56186">
                <path id="Path_55212" d="M1337.034 687.843l-.632-9.015a1.132 1.132 0 0 0-1.865-.77l-3.094 2.677a5.222 5.222 0 0 1-3.016 1.246l-1.314.1a5.164 5.164 0 0 1-3.288-.909l-5.174-3.615a2.989 2.989 0 0 0-3.579.142l-11.466 9.294a9.772 9.772 0 0 1-4.136 1.992c-1.3.265-2.741.774-2.685 1.66z" class="cls-17" data-name="Path 55212"/>
                <path id="Path_55213" d="M1336.687 688.658l.17-.416a.288.288 0 0 0 .022-.126.3.3 0 0 0-.31-.282l-39.136 2.763h-.01a.636.636 0 0 0-.583.685v.037a2.561 2.561 0 0 0 2.752 2.355l33.385-2.351a4.355 4.355 0 0 0 3.71-2.665z" class="cls-17" data-name="Path 55213"/>
            </g>
        </g>
        <g id="Group_56191" data-name="Group 56191">
            <g id="Group_56188" data-name="Group 56188">
                <path id="Path_55214" d="M1444.138 405.229a2.63 2.63 0 1 1-2.63-2.629 2.63 2.63 0 0 1 2.63 2.629z" class="cls-26" data-name="Path 55214"/>
            </g>
            <g id="Group_56189" data-name="Group 56189">
                <path id="Path_55215" d="M1455.118 405.229a2.63 2.63 0 1 1-2.63-2.629 2.63 2.63 0 0 1 2.63 2.629z" class="cls-27" data-name="Path 55215"/>
            </g>
            <g id="Group_56190" data-name="Group 56190">
                <path id="Path_55216" d="M1465.313 405.506a2.63 2.63 0 1 1-2.629-2.629 2.63 2.63 0 0 1 2.629 2.629z" class="cls-28" data-name="Path 55216"/>
            </g>
        </g>
    </g>
</svg>
